<svg width="368" height="599" viewBox="0 0 368 599" fill="none" xmlns="http://www.w3.org/2000/svg">
<path d="M59.4858 103.567C60.67 89.1696 76.26 80.738 88.9573 87.628L247.467 173.641C252.569 176.409 256.216 181.257 257.462 186.926L335.073 540.035C337.995 553.328 327.073 565.594 313.531 564.227L43.5333 536.972C32.6873 535.877 24.7158 526.298 25.6094 515.433L59.4858 103.567Z" fill="#E6FCFB"/>
<path opacity="0.1" d="M135.468 510.792C210.286 510.792 270.937 501.388 270.937 489.788C270.937 478.187 210.286 468.783 135.468 468.783C60.6513 468.783 0 478.187 0 489.788C0 501.388 60.6513 510.792 135.468 510.792Z" fill="#03DFD8"/>
<path d="M37.0412 424.56C33.0267 432.372 31.1518 441.109 31.6069 449.881C32.062 458.653 34.8311 467.148 39.6325 474.503C41.2077 476.867 42.6569 478.568 43.8146 479.017C49.3673 481.2 60.4883 486.565 60.4883 486.565L87.267 476.039C87.267 476.039 91.6146 453.034 95.7259 433.282C98.5297 419.809 101.239 407.857 102.35 405.762C105.122 400.601 102.35 344.419 102.35 344.419C102.35 344.419 75.571 342.622 68.2069 363.272L64.9855 369.575L37.0412 424.56Z" fill="#A8A8A8"/>
<path opacity="0.1" d="M72.5938 430.769C88.8737 449.433 95.7416 433.29 95.7416 433.29C98.5455 419.817 101.255 407.866 102.365 405.77C105.138 400.609 102.365 344.427 102.365 344.427C102.365 344.427 75.5867 342.63 68.2226 363.28L65.0013 369.583C62.9377 386.105 60.8978 417.336 72.5938 430.769Z" fill="white"/>
<path d="M76.1694 482.791L170.682 471.871L187.545 360.877L174.794 332.049C169.406 319.772 161.947 308.515 152.741 298.77C146.322 292.002 138.564 285.494 130.404 282.225C129.289 281.775 128.151 281.386 126.994 281.059C125.664 280.654 124.257 280.57 122.889 280.812C121.52 281.055 120.228 281.617 119.118 282.453C107.461 290.718 103.295 325.856 101.948 342.772C101.394 349.723 100.455 356.638 99.1361 363.485L76.1694 482.791Z" fill="#A8A8A8"/>
<path opacity="0.1" d="M139.092 359.68L119.401 408.133C129.719 400.586 145.006 359.483 145.006 359.483L158.703 406.345L147.787 356.954C149.385 346.228 149.849 335.364 149.173 324.541C148.307 312.14 136.674 292.238 130.357 282.217C129.242 281.767 128.103 281.378 126.947 281.051C125.617 280.647 124.21 280.562 122.842 280.805C121.473 281.047 120.181 281.609 119.071 282.445C124.032 292.412 136.437 317.332 140.218 324.738C145.014 334.066 139.092 359.68 139.092 359.68Z" fill="white"/>
<path d="M155.167 486.565H206.448C208.557 486.566 210.645 486.137 212.583 485.306C214.522 484.474 216.271 483.256 217.725 481.727C219.178 480.198 220.306 478.389 221.038 476.41C221.771 474.432 222.094 472.325 221.987 470.217C220.853 448.22 217.978 409 211.142 384.104C207.448 370.67 203.155 363.619 199.217 360.145C197.371 358.362 194.987 357.24 192.436 356.954C190.501 356.787 188.565 357.257 186.923 358.293C177.401 367.424 166.28 415.476 166.28 415.476L155.167 486.565Z" fill="#A8A8A8"/>
<path opacity="0.1" d="M202.51 443.95C204.621 449.803 205.455 456.555 202.51 463.134L191.082 468.783C191.082 468.783 160.365 455.76 164.098 429.067C164.098 429.067 165.106 423.552 175.684 423.977C181.633 424.265 187.361 426.318 192.139 429.875C196.916 433.432 200.527 438.332 202.51 443.95Z" fill="white"/>
<path opacity="0.1" d="M190.302 373.782C189.947 364.423 195.027 361.177 199.225 360.144C197.379 358.362 194.994 357.24 192.444 356.954C189.522 359.4 187.451 362.71 186.529 366.408L175.818 418.636C175.818 418.636 190.9 389.469 190.302 373.782Z" fill="white"/>
<path d="M141.675 415.082L167.067 449.827L171.47 478.505L155.151 486.565L131.625 491.765C129.359 492.269 127.03 492.42 124.718 492.214L60.5198 486.565L69.2543 466.309L99.4197 423.946L141.675 415.082Z" fill="#A8A8A8"/>
<path opacity="0.1" d="M131.846 403.154C131.846 403.154 149.173 404.344 142.667 434.125C136.162 463.906 69.2229 466.294 69.2229 466.294C69.2229 466.294 83.4471 441.082 105.327 423.016C107.784 420.991 110.155 418.88 112.415 416.627C117.448 411.592 127.073 402.744 131.846 403.154Z" fill="white"/>
<path opacity="0.1" d="M147.432 425.608C147.432 425.608 170.911 446.983 168.698 479.876L147.432 425.608Z" fill="black"/>
<path opacity="0.1" d="M186.931 358.293C186.931 358.293 162.294 391.068 159.53 441.499L186.931 358.293Z" fill="black"/>
<path opacity="0.1" d="M102.373 344.403C102.373 344.403 114.298 398.569 84.5261 439.396L102.373 344.403Z" fill="black"/>
<path d="M68.338 172.079H127.979C128.555 172.076 129.121 171.923 129.621 171.637C130.122 171.35 130.539 170.939 130.834 170.443C131.128 169.947 131.289 169.384 131.301 168.807C131.313 168.231 131.176 167.661 130.903 167.153L101.098 111.757C100.812 111.226 100.388 110.782 99.8703 110.473C99.3528 110.163 98.7612 110 98.1583 110C97.5554 110 96.9638 110.163 96.4463 110.473C95.9288 110.782 95.5047 111.226 95.219 111.757L65.3988 167.153C65.1251 167.662 64.988 168.233 65.0008 168.811C65.0137 169.389 65.1761 169.953 65.4722 170.449C65.7683 170.946 66.188 171.357 66.6903 171.642C67.1926 171.928 67.7603 172.078 68.338 172.079ZM101.953 161.956H94.3636V154.368H101.953V161.956ZM101.953 149.307H94.3636V134.127H101.953V149.307Z" fill="#464353"/>
<path opacity="0.1" d="M68.338 172.079H127.979C128.555 172.076 129.121 171.923 129.621 171.637C130.122 171.35 130.539 170.939 130.834 170.443C131.128 169.947 131.289 169.384 131.301 168.807C131.313 168.231 131.176 167.661 130.903 167.153L101.098 111.757C100.812 111.226 100.388 110.782 99.8703 110.473C99.3528 110.163 98.7612 110 98.1583 110C97.5554 110 96.9638 110.163 96.4463 110.473C95.9288 110.782 95.5047 111.226 95.219 111.757L65.3988 167.153C65.1251 167.662 64.988 168.233 65.0008 168.811C65.0137 169.389 65.1761 169.953 65.4722 170.449C65.7683 170.946 66.188 171.357 66.6903 171.642C67.1926 171.928 67.7603 172.078 68.338 172.079ZM101.953 161.956H94.3636V154.368H101.953V161.956ZM101.953 149.307H94.3636V134.127H101.953V149.307Z" fill="black"/>
<path d="M68.338 173.907H127.979C128.555 173.904 129.121 173.752 129.621 173.465C130.122 173.179 130.539 172.767 130.834 172.272C131.128 171.776 131.289 171.212 131.301 170.636C131.313 170.059 131.176 169.489 130.903 168.981L101.098 113.585C100.812 113.054 100.388 112.61 99.8703 112.301C99.3528 111.992 98.7612 111.828 98.1583 111.828C97.5554 111.828 96.9638 111.992 96.4463 112.301C95.9288 112.61 95.5047 113.054 95.219 113.585L65.3988 168.981C65.1251 169.49 64.988 170.061 65.0008 170.639C65.0137 171.217 65.1761 171.782 65.4722 172.278C65.7683 172.774 66.188 173.185 66.6903 173.471C67.1926 173.756 67.7603 173.907 68.338 173.907ZM101.953 163.785H94.3636V156.196H101.953V163.785ZM101.953 151.135H94.3636V135.955H101.953V151.135Z" fill="#464353"/>
<path d="M184.15 180.503C184.064 182.15 184.883 183.655 185.363 185.231C186.158 188.274 186.079 191.48 185.135 194.48C184.253 197.632 182.772 200.964 183.898 204.045C184.158 204.77 184.552 205.431 184.788 206.156C185.765 209.15 183.954 212.302 181.969 214.752L189.758 220.212C190.896 221.155 192.248 221.802 193.696 222.095C195.153 222.268 196.847 221.488 197.146 220.054C197.248 219.566 197.146 219.054 197.24 218.557C197.336 217.915 197.584 217.306 197.964 216.78C198.343 216.253 198.843 215.825 199.422 215.532C200.592 214.958 201.897 214.715 203.195 214.831C207.976 215.091 212.04 218.234 216.387 220.251C219.254 221.493 222.224 222.479 225.264 223.198C226.988 223.647 228.902 224.057 230.462 223.198C232.021 222.339 232.738 220.346 232.62 218.542C232.378 216.747 231.818 215.01 230.966 213.413C230.106 211.817 229.589 210.059 229.446 208.252C229.446 205.605 230.895 203.194 231.383 200.594C232.068 196.899 230.674 193.141 228.973 189.784C227.272 186.428 225.208 183.198 224.381 179.542C224.217 178.434 223.929 177.348 223.523 176.304C223.129 175.511 222.595 174.796 221.948 174.193C219.026 171.301 214.859 169.93 210.779 169.631C206.7 169.332 202.58 170.001 198.532 170.702C196.988 170.923 195.466 171.284 193.988 171.782C191.874 172.622 189.868 173.709 188.01 175.02C186.167 176.296 184.269 178.163 184.15 180.503Z" fill="#464353"/>
<g opacity="0.1">
<path opacity="0.1" d="M229.422 206.637C229.422 206.873 229.422 207.11 229.47 207.338C229.714 205.03 230.927 202.863 231.36 200.555C231.527 199.63 231.577 198.687 231.51 197.75C231.51 198.159 231.431 198.538 231.36 198.979C230.864 201.579 229.391 203.99 229.422 206.637Z" fill="black"/>
<path opacity="0.1" d="M185.891 188.382C185.984 186.788 185.806 185.189 185.364 183.655C184.897 182.459 184.516 181.232 184.222 179.983C184.222 180.149 184.159 180.306 184.151 180.472C184.064 182.119 184.883 183.623 185.364 185.199C185.668 186.235 185.845 187.304 185.891 188.382Z" fill="black"/>
<path opacity="0.1" d="M232.549 218.108C232.494 218.812 232.274 219.493 231.908 220.097C231.541 220.7 231.038 221.209 230.438 221.583C228.863 222.441 226.965 222.032 225.24 221.583C222.199 220.864 219.229 219.876 216.364 218.628C212.016 216.619 207.952 213.475 203.171 213.215C201.873 213.1 200.569 213.343 199.399 213.917C198.82 214.21 198.32 214.638 197.94 215.164C197.561 215.691 197.313 216.3 197.217 216.942C197.162 217.438 197.217 217.95 197.123 218.439C196.815 219.873 195.13 220.653 193.673 220.48C192.225 220.186 190.872 219.54 189.735 218.597L182.733 213.68C182.473 214.035 182.213 214.381 181.945 214.704L189.735 220.172C190.872 221.115 192.225 221.762 193.673 222.055C195.13 222.229 196.823 221.449 197.123 220.015C197.225 219.526 197.123 219.014 197.217 218.518C197.313 217.876 197.561 217.266 197.94 216.74C198.32 216.214 198.82 215.786 199.399 215.492C200.569 214.918 201.873 214.676 203.171 214.791C207.952 215.051 212.016 218.195 216.364 220.204C219.229 221.451 222.199 222.44 225.24 223.158C226.965 223.607 228.879 224.017 230.438 223.158C231.998 222.3 232.715 220.306 232.596 218.502C232.588 218.368 232.565 218.242 232.549 218.108Z" fill="black"/>
<path opacity="0.1" d="M184.789 206.117C184.886 206.434 184.957 206.758 185.001 207.086C185.123 206.233 185.051 205.363 184.789 204.541C184.552 203.816 184.159 203.155 183.899 202.43C183.709 201.904 183.587 201.356 183.536 200.799C183.42 201.881 183.544 202.976 183.899 204.005C184.159 204.73 184.552 205.4 184.789 206.117Z" fill="black"/>
</g>
<path d="M194.035 505.072C193.981 505.296 193.853 505.496 193.673 505.639C193.481 505.739 193.266 505.785 193.05 505.773C190.247 505.836 187.443 505.773 184.647 505.97C182 506.199 179.346 506.758 176.708 506.459C175.864 506.489 175.031 506.255 174.325 505.791C173.62 505.326 173.076 504.654 172.77 503.867C172.603 503.523 172.456 503.171 172.328 502.811C171.602 500.954 171.235 498.975 171.249 496.981C171.249 496.453 171.249 495.941 171.249 495.405C171.215 494.828 171.139 494.254 171.021 493.687C170.782 493.039 170.811 492.322 171.1 491.694C172.218 489.654 174.92 489.244 176.999 489.086C181.816 488.723 186.66 489.079 191.373 490.142C191.743 491.954 192.16 493.751 192.602 495.547C192.927 496.865 193.274 498.178 193.641 499.486C193.888 500.296 194.088 501.119 194.24 501.952C194.435 502.993 194.364 504.066 194.035 505.072Z" fill="#464353"/>
<path opacity="0.06" d="M194.035 505.072C193.981 505.296 193.854 505.496 193.673 505.639C193.481 505.739 193.266 505.785 193.051 505.773C190.247 505.836 187.443 505.773 184.647 505.97C182 506.199 179.346 506.758 176.708 506.459C175.864 506.489 175.031 506.255 174.326 505.791C173.62 505.326 173.076 504.654 172.77 503.867C172.603 503.523 172.456 503.171 172.329 502.811H173.337C176.653 502.811 179.976 502.693 183.292 502.693C184.292 502.693 185.301 502.646 186.293 502.527C187.285 502.409 188.097 502.244 189.002 502.133C190.358 502.004 191.72 501.948 193.082 501.968H194.2C194.405 503 194.348 504.068 194.035 505.072Z" fill="black"/>
<path d="M252.042 490.442C251.164 491.467 250.043 492.255 248.782 492.734C243.174 495.098 236.692 494.034 230.903 492.112C229.608 491.631 228.278 491.249 226.925 490.97C225.691 490.796 224.446 490.709 223.2 490.71C222.31 490.71 221.42 490.639 220.53 490.584C218.278 490.442 216.033 490.221 213.796 490C212.237 489.886 210.688 489.652 209.165 489.299C208.732 489.188 208.316 489.019 207.928 488.795C207.598 488.65 207.316 488.413 207.115 488.113C206.914 487.813 206.803 487.462 206.794 487.101C206.857 486.101 207.897 485.525 208.81 485.092C216.915 481.586 225.72 480.066 234.463 478.844C235.352 478.696 236.218 478.431 237.038 478.057C238.023 477.663 238.125 478.309 238.614 479.033C238.844 479.369 239.108 479.68 239.401 479.963C240.351 480.821 241.466 481.475 242.678 481.886C244.804 482.673 247.08 482.886 249.207 483.635C249.85 483.858 250.466 484.154 251.042 484.517C251.551 484.794 251.989 485.184 252.324 485.656C252.659 486.129 252.881 486.672 252.974 487.244C253.066 487.816 253.027 488.401 252.859 488.955C252.691 489.51 252.398 490.018 252.003 490.442H252.042Z" fill="#464353"/>
<path opacity="0.06" d="M252.042 490.442C251.164 491.467 250.043 492.255 248.782 492.734C243.174 495.098 236.692 494.034 230.903 492.112C229.608 491.631 228.278 491.249 226.925 490.969C225.691 490.796 224.446 490.709 223.2 490.709C222.31 490.709 221.42 490.639 220.53 490.583C221.255 489.898 221.995 489.228 222.751 488.582C223.299 488.07 223.93 487.654 224.618 487.353C225.474 487.072 226.386 487.01 227.272 487.172C231.777 487.794 235.825 490.954 240.37 490.678C242.487 490.434 244.535 489.773 246.395 488.732C247.908 488.116 249.256 487.155 250.333 485.927C250.658 485.504 250.906 485.026 251.066 484.517C251.574 484.794 252.013 485.184 252.347 485.656C252.682 486.129 252.904 486.672 252.997 487.244C253.09 487.815 253.051 488.401 252.882 488.955C252.714 489.51 252.421 490.018 252.026 490.442H252.042Z" fill="black"/>
<path d="M250.459 353.519C249.672 355.094 248.663 356.804 246.962 357.293C244.489 358.002 242.111 355.78 241.031 353.448C239.561 350.025 239.283 346.206 240.244 342.607C240.693 340.787 241.378 339.038 241.764 337.21C242.042 335.672 242.211 334.116 242.268 332.554C242.501 330.224 242.445 327.874 242.103 325.557C240.835 318.79 235.014 313.739 233.077 307.09C232.1 303.773 232.147 300.243 232.202 296.785C232.184 295.91 232.274 295.037 232.47 294.185C232.529 293.952 232.608 293.725 232.706 293.507C234.006 290.623 237.857 290.229 240.535 288.551C242.016 287.63 245.379 284.659 246.623 287.37C246.892 287.973 247.093 288.605 247.222 289.253C247.734 291.663 247.529 294.492 247.655 296.769C248.136 305.372 250.278 313.96 249.286 322.516C249.049 323.975 248.933 325.451 248.939 326.928C249.152 330.631 251.467 333.838 252.531 337.383C254.169 342.717 252.853 348.524 250.459 353.519Z" fill="#FBBEBE"/>
<path opacity="0.1" d="M247.261 289.268C246.676 289.056 246.035 289.056 245.45 289.268L240.118 290.844C238.249 291.342 236.428 292.004 234.675 292.821C233.91 293.197 233.185 293.648 232.51 294.169C232.568 293.936 232.647 293.71 232.746 293.491C234.045 290.608 237.897 290.214 240.575 288.535C242.055 287.614 245.418 284.643 246.663 287.354C246.934 287.967 247.135 288.61 247.261 289.268Z" fill="black"/>
<path d="M247.608 288.669C247.287 288.474 246.924 288.357 246.549 288.327C246.175 288.297 245.798 288.355 245.45 288.496L240.118 290.072C238.249 290.57 236.428 291.232 234.675 292.049C233.745 292.502 232.875 293.068 232.084 293.735C229.595 289.41 228.934 284.281 228.477 279.317C228.225 276.426 228.036 273.527 227.926 270.651C227.802 268.581 227.844 266.505 228.052 264.443C228.351 262.079 229.036 259.771 229.461 257.423C229.715 256.048 229.878 254.659 229.95 253.263C230.154 250.213 230.014 247.15 229.532 244.131C229.074 240.923 228.342 237.76 227.343 234.677C226.839 233.267 226.232 231.904 225.681 230.517L225.492 230.029C224.496 227.487 223.683 224.878 223.058 222.221C222.806 221.134 222.79 219.991 221.956 219.251C222.739 219.156 223.53 219.125 224.318 219.156C224.476 219.156 224.633 219.156 224.791 219.156C228.027 219.36 231.144 220.45 233.801 222.308C237.224 224.778 239.825 228.22 241.268 232.187C242.93 236.623 243.205 241.445 243.418 246.18C243.843 255.487 244.106 264.8 244.205 274.118C244.205 275.906 244.284 277.813 245.308 279.286C245.595 279.649 245.859 280.031 246.096 280.428C246.466 281.216 246.411 282.091 246.71 282.886C246.93 283.364 247.18 283.827 247.458 284.273C247.811 284.948 248.007 285.693 248.033 286.454C248.059 287.215 247.914 287.972 247.608 288.669Z" fill="#464353"/>
<path d="M195.185 196.19C194.397 195.93 193.61 195.654 192.822 195.402L194.46 195.528C194.733 195.711 194.978 195.934 195.185 196.19Z" fill="#FBBEBE"/>
<path d="M227.437 224.624C227.28 225.16 227.122 225.695 226.949 226.2C226.549 227.494 226.062 228.76 225.492 229.989C224.599 232.008 223.336 233.842 221.767 235.394C221.249 235.94 220.613 236.36 219.908 236.623C219.312 236.776 218.695 236.834 218.081 236.796C215.98 236.796 213.88 236.765 211.78 236.702C210.145 236.72 208.512 236.559 206.912 236.221C205.151 235.741 203.477 234.986 201.95 233.984C196.067 230.344 191.231 224.797 189.16 218.226C188.9 217.391 188.719 216.391 189.294 215.737C189.859 215.275 190.572 215.032 191.302 215.051H191.397C193.09 214.831 194.721 214.271 196.193 213.405C197.146 212.917 197.915 212.131 198.383 211.167C198.702 210.025 198.677 208.813 198.312 207.685L196.563 199.743C196.381 198.471 195.904 197.26 195.169 196.206C195.681 196.387 196.193 196.552 196.744 196.694C201.612 198.01 206.936 197.214 211.709 198.939C213.536 199.609 215.363 200.815 215.915 202.69C216.836 205.841 213.757 209.111 214.639 212.262C215.23 214.405 217.411 215.642 219.364 216.643L220.68 217.312L224.326 219.164L224.83 219.416L224.909 219.455C226.059 220.038 227.272 220.763 227.674 222C227.845 222.88 227.763 223.789 227.437 224.624Z" fill="#FBBEBE"/>
<path opacity="0.1" d="M237.046 243.123C236.913 245.137 236.422 247.111 235.597 248.953C234.016 252.139 233.168 255.639 233.116 259.195C232.51 269.832 228.469 282.493 234.258 291.427C234.4 291.647 234.542 291.868 234.676 292.097C233.745 292.549 232.875 293.116 232.084 293.783C229.595 289.457 228.934 284.328 228.477 279.365C228.225 276.473 228.036 273.574 227.926 270.698C227.802 268.629 227.844 266.553 228.052 264.49C228.351 262.126 229.036 259.818 229.462 257.47C229.715 256.095 229.878 254.706 229.95 253.31C230.154 250.26 230.014 247.197 229.532 244.179C229.075 240.97 228.342 237.807 227.343 234.724C226.839 233.314 226.232 231.951 225.681 230.564L225.492 230.076C224.599 232.095 223.336 233.928 221.767 235.481C221.249 236.026 220.613 236.447 219.908 236.71C219.312 236.862 218.695 236.921 218.081 236.883C215.98 236.883 213.88 236.851 211.78 236.788C210.145 236.807 208.512 236.645 206.912 236.308C205.151 235.827 203.477 235.072 201.95 234.07C196.067 230.43 191.231 224.884 189.16 218.313C188.9 217.478 188.719 216.477 189.294 215.823C189.859 215.362 190.572 215.118 191.302 215.138H191.397L198.485 223.907C199.298 224.835 199.986 225.865 200.533 226.972C200.639 227.343 200.859 227.671 201.163 227.909C201.409 228.022 201.68 228.071 201.95 228.051C208.606 228.051 217.474 228.051 224.129 228.051C224.151 226.871 223.81 225.714 223.153 224.734C222.948 224.781 222.672 224.797 223.098 224.671C222.713 222.114 221.887 219.642 220.656 217.368C220.583 217.211 220.501 217.059 220.412 216.911C219.883 216.131 219.489 215.268 219.246 214.358C220.087 214.09 220.989 214.09 221.83 214.358C222.798 214.776 223.302 215.823 223.728 216.792C224.09 217.58 224.452 218.423 224.775 219.251C224.775 219.337 224.854 219.432 224.886 219.518C225.572 221.149 226.013 222.872 226.193 224.632C226.24 225.278 226.398 226.097 226.933 226.31C227.018 226.348 227.109 226.37 227.201 226.373C227.756 226.17 228.358 226.136 228.932 226.277C229.505 226.417 230.024 226.725 230.422 227.161C231.197 228.048 231.739 229.115 231.998 230.265C232.254 231.414 232.629 232.534 233.116 233.605C234.132 235.544 232.581 236.41 234.416 237.6C235.274 238.072 236.012 238.735 236.574 239.538C237.093 240.657 237.258 241.908 237.046 243.123Z" fill="black"/>
<path opacity="0.1" d="M191.302 490.174C191.672 491.986 192.09 493.782 192.531 495.578L192.483 495.689C188.884 494.113 185.198 492.466 181.268 492.12C177.621 491.804 173.66 492.789 171.179 495.437C171.144 494.859 171.068 494.285 170.95 493.719C170.711 493.07 170.74 492.353 171.029 491.726C172.147 489.685 174.849 489.275 176.928 489.118C181.745 488.755 186.59 489.111 191.302 490.174Z" fill="black"/>
<path opacity="0.1" d="M222.326 226.176C222.696 226.176 222.562 226.176 222.381 226.239C222.2 226.302 221.901 226.302 222.326 226.176Z" fill="black"/>
<path opacity="0.1" d="M239.441 479.963C235.928 482.202 232.627 484.758 229.58 487.598C228.695 488.545 227.639 489.318 226.469 489.874C225.26 490.264 223.983 490.395 222.72 490.26C217.765 490.06 212.826 489.571 207.928 488.795C207.598 488.65 207.316 488.413 207.115 488.113C206.914 487.813 206.803 487.462 206.794 487.101C206.857 486.101 207.897 485.525 208.81 485.092C216.915 481.586 225.72 480.066 234.463 478.844C235.352 478.696 236.218 478.431 237.038 478.057C238.023 477.663 238.125 478.309 238.614 479.033C238.857 479.371 239.134 479.682 239.441 479.963Z" fill="black"/>
<path d="M181.654 217.037C182.812 218.069 184.135 218.904 185.308 219.905C188.459 222.575 190.443 226.31 192.397 229.95C191.238 230.369 189.986 230.453 188.782 230.194C188.162 233.689 188.267 237.275 189.089 240.728C187.513 241.809 186.289 243.33 185.568 245.101C185.008 246.898 184.623 248.744 184.418 250.616C183.284 258.815 182.145 267.014 181 275.213C180.977 276.015 180.701 276.79 180.212 277.427C179.994 277.603 179.793 277.801 179.614 278.018C179.373 278.548 179.278 279.132 179.338 279.711C179.291 280.287 178.913 280.972 178.338 280.893C178.059 280.826 177.811 280.665 177.637 280.436C177.062 279.827 176.535 279.174 176.062 278.482C171.415 287.401 169.178 297.013 166.721 306.767C164.964 313.716 163.208 320.743 163.121 327.913C163.145 331.305 163.358 334.693 163.759 338.061L164.452 344.978C165.012 350.54 165.571 356.111 166.177 361.673C166.571 365.203 166.965 368.764 168.233 372.089C170.123 377.139 168.028 382.835 168.831 388.177C169.462 392.36 170.714 396.686 169.454 400.72C168.95 402.335 168.068 403.808 167.406 405.368C165.783 409.244 165.618 413.554 165.476 417.753C165.221 421.434 165.359 425.132 165.886 428.783C166.563 432.557 168.083 436.252 167.784 440.066C167.367 445.494 163.366 450.134 162.877 455.555C162.491 459.88 164.389 464.056 166.429 467.893C167.934 470.721 165.839 474.377 165.043 477.489C163.468 483.587 166.091 489.969 169.304 495.382C169.386 495.567 169.531 495.718 169.714 495.807C170.084 495.941 170.415 495.579 170.659 495.271C173.077 492.167 177.361 490.993 181.291 491.332C185.222 491.671 188.9 493.294 192.507 494.901L197.619 483.516C198.485 481.586 199.367 479.498 198.934 477.426C198.627 475.945 197.674 474.692 196.996 473.337C195.421 470.138 195.342 466.412 195.327 462.827L195.232 442.579C199.217 437.568 201.651 431.612 203.187 425.388C205.543 434.142 205.705 443.343 203.66 452.175C203.281 453.51 203.017 454.876 202.872 456.256C202.565 461.874 206.967 466.624 208.141 472.124C208.255 472.544 208.287 472.983 208.236 473.416C208.103 473.948 207.882 474.454 207.582 474.913C205.471 478.742 205.699 483.382 206.007 487.747C211.53 488.709 217.11 489.306 222.712 489.536C223.975 489.662 225.25 489.53 226.461 489.15C227.632 488.59 228.687 487.815 229.572 486.865C233.148 483.5 237.074 480.529 241.284 478.001C238.933 474.1 235.643 470.85 231.714 468.547C232.982 466.68 235.873 466.829 237.558 465.332C238.404 464.495 238.957 463.406 239.133 462.228C239.763 459.14 238.984 455.925 238.204 452.892C236.692 446.92 235.172 440.924 232.691 435.283C231.569 432.965 230.58 430.584 229.729 428.153C227.666 421.362 229.107 413.971 227.548 407.03C227.044 404.809 226.232 402.516 226.799 400.302C227.666 396.891 231.525 394.866 232.376 391.446C235.424 379.274 235.967 366.66 237.7 354.236C238.087 351.862 238.295 349.463 238.322 347.058C238.322 344.545 237.873 342.055 237.692 339.55C236.983 329.52 240.189 319.514 239.37 309.493C238.845 303.317 236.811 297.365 233.447 292.16C227.658 283.217 231.698 270.564 232.305 259.928C232.35 256.372 233.196 252.871 234.778 249.686C235.61 247.846 236.103 245.871 236.235 243.856C236.478 242.613 236.324 241.326 235.794 240.176C235.24 239.37 234.503 238.706 233.644 238.238C231.809 237.041 233.36 236.174 232.344 234.236C231.855 233.165 231.481 232.045 231.226 230.895C230.968 229.748 230.426 228.683 229.651 227.799C229.252 227.363 228.733 227.055 228.16 226.915C227.586 226.775 226.984 226.808 226.429 227.011C225.681 227.011 225.476 226.018 225.413 225.27C225.201 222.528 224.066 219.952 222.956 217.431C222.531 216.462 222.027 215.414 221.058 214.996C220.214 214.732 219.31 214.732 218.467 214.996C218.71 215.91 219.107 216.776 219.64 217.557C221.005 219.953 221.913 222.581 222.318 225.309C223.106 225.309 221.53 225.546 222.318 225.309C223.023 226.292 223.386 227.48 223.35 228.689C216.702 228.689 207.834 228.689 201.179 228.689C200.908 228.711 200.637 228.662 200.391 228.547C200.087 228.308 199.865 227.98 199.753 227.61C199.211 226.503 198.523 225.475 197.705 224.553L189.908 214.933C189.735 214.682 189.506 214.474 189.238 214.326C188.917 214.236 188.576 214.236 188.254 214.326C185.726 214.697 183.859 215.753 181.654 217.037Z" fill="#03DFD8"/>
<path opacity="0.1" d="M209.638 347.381C210.982 347.363 212.306 347.706 213.473 348.374C214.052 348.715 214.533 349.2 214.867 349.783C215.201 350.366 215.378 351.027 215.379 351.699C215.293 353.188 214.151 354.369 213.324 355.638C212.812 356.411 212.404 357.248 212.111 358.128C212.02 358.328 211.998 358.552 212.048 358.766C212.142 359.065 212.465 359.215 212.741 359.349C213.743 359.802 214.599 360.526 215.212 361.439C215.826 362.352 216.173 363.418 216.214 364.517C216.143 367.59 213.142 370.079 213.308 373.184C213.383 373.83 213.493 374.472 213.639 375.106C213.999 377.752 213.631 380.446 212.575 382.898C211.622 385.372 210.323 387.696 209.299 390.146C206.534 396.804 205.936 404.178 206.148 411.419C206.314 416.335 204.573 421.015 202.998 425.695C203.888 416.268 204.125 406.791 203.707 397.332C203.597 394.763 203.274 392.337 203.392 389.76C203.581 385.671 205.865 381.953 206.448 377.942C206.779 375.65 206.558 373.318 206.613 371.001C206.723 366.274 208.007 361.61 208.094 356.867C208.204 353.519 207.897 350.068 209.638 347.381Z" fill="black"/>
<path d="M176.771 218.723C175.205 219.504 173.74 220.472 172.407 221.606C171.015 222.99 169.851 224.585 168.958 226.334C167.87 228.315 166.894 230.356 166.036 232.447C164.925 235.158 164.004 238.159 164.768 240.988C165.461 243.548 167.422 245.542 168.776 247.819C170.131 250.096 170.927 252.766 171.966 255.264C173.352 258.597 175.251 261.701 176.621 265.041C177.991 268.382 178.818 272.132 177.952 275.607C177.7 276.631 176.038 277.427 176.038 278.474C176.038 280.208 178.543 282.091 180.205 282.595C182.119 283.186 184.206 282.303 185.773 281.019C188.648 278.742 190.396 275.331 191.688 271.896C193.767 266.381 194.878 260.527 195.878 254.712C196.603 250.442 197.28 246.164 197.666 241.862C198.02 237.986 198.131 233.984 197.107 230.265C196.151 226.852 194.293 223.76 191.727 221.315C189.68 219.345 186.324 216.698 183.347 216.627C180.992 216.619 178.787 217.612 176.771 218.723Z" fill="#464353"/>
<path d="M199.162 313.7C199.077 314.238 198.876 314.752 198.572 315.205C198.269 315.658 197.871 316.039 197.406 316.323C196.477 316.888 195.464 317.303 194.405 317.552C192.294 318.167 190.058 318.734 187.923 318.191C186.246 317.644 184.697 316.762 183.371 315.599L159.522 297.336C157.606 295.977 155.845 294.413 154.269 292.672C153.364 291.547 152.533 290.366 151.78 289.134C150.783 287.724 150.003 286.174 149.464 284.533C149.272 283.811 149.177 283.066 149.181 282.319C149.175 281.612 149.348 280.916 149.685 280.294C150.26 279.333 151.489 279.136 152.497 278.868C155.88 277.993 159.393 277.726 162.869 278.08C163.175 278.066 163.477 278.151 163.73 278.323C163.983 278.495 164.173 278.744 164.271 279.034C164.799 280.003 165.256 281.011 165.728 282.02C166.454 283.739 167.399 285.357 168.54 286.834C169.64 288.029 170.81 289.158 172.045 290.214C174.565 292.577 176.629 295.413 179.315 297.588C182.426 300.101 186.206 301.606 189.75 303.458C193.295 305.309 196.792 307.712 198.572 311.297C198.985 312.029 199.189 312.86 199.162 313.7Z" fill="#FBBEBE"/>
<path opacity="0.1" d="M226.768 186.286C226.769 191.26 224.87 196.047 221.46 199.667C218.05 203.288 213.386 205.468 208.423 205.763C203.459 206.058 198.57 204.445 194.755 201.253C190.941 198.062 188.49 193.534 187.902 188.594C187.315 183.655 188.636 178.678 191.595 174.68C194.555 170.683 198.929 167.967 203.823 167.089C208.718 166.21 213.763 167.236 217.927 169.955C222.09 172.674 225.059 176.881 226.225 181.717C226.586 183.213 226.768 184.747 226.768 186.286Z" fill="black"/>
<path d="M226.768 185.498C226.769 190.473 224.87 195.259 221.46 198.88C218.05 202.5 213.386 204.68 208.423 204.975C203.459 205.27 198.57 203.657 194.755 200.466C190.941 197.274 188.49 192.746 187.902 187.806C187.315 182.867 188.636 177.89 191.595 173.892C194.555 169.895 198.929 167.179 203.823 166.301C208.718 165.423 213.763 166.448 217.927 169.167C222.09 171.886 225.059 176.093 226.225 180.929C226.586 182.425 226.768 183.959 226.768 185.498Z" fill="#FBBEBE"/>
<path opacity="0.1" d="M165.728 281.988C164.831 282.563 163.5 282.374 162.389 282.122C158.01 281.145 153.174 280.444 149.181 282.319C149.175 281.612 149.348 280.916 149.685 280.294C150.26 279.333 151.489 279.136 152.497 278.868C155.88 277.993 159.393 277.726 162.869 278.08C163.175 278.066 163.477 278.151 163.73 278.323C163.983 278.495 164.173 278.744 164.271 279.034C164.799 279.971 165.256 280.98 165.728 281.988Z" fill="black"/>
<path d="M157.498 255.461C156.529 258.612 155.734 261.85 153.835 264.521C153.208 265.224 152.736 266.05 152.449 266.948C152.428 267.61 152.319 268.267 152.126 268.902C151.859 269.437 151.291 269.792 151.063 270.343C150.724 271.131 151.165 272.148 150.716 272.888C150.506 273.186 150.254 273.451 149.968 273.676C148.897 274.669 148.629 276.252 148.606 277.718C148.582 279.183 148.724 280.68 148.243 282.059C152.402 279.577 157.695 280.318 162.42 281.374C163.736 281.665 165.366 281.886 166.217 280.83C167.067 279.774 166.579 278.388 166.697 277.119C166.855 275.465 167.989 274.094 168.69 272.589C169.477 270.895 169.745 269.004 170.352 267.239C171.604 263.528 174.29 260.503 176.014 256.997C176.653 255.791 177.034 254.466 177.133 253.105C177.073 251.341 176.613 249.614 175.786 248.055C174.147 244.424 172.197 240.942 169.958 237.647C168.957 236.174 167.233 233.448 165.681 235.804C164.421 237.702 163.633 240.121 162.704 242.201C160.701 246.511 158.963 250.939 157.498 255.461Z" fill="#464353"/>
<path d="M228.564 224.876C226.199 225.039 223.827 224.672 221.623 223.801C219.418 222.93 217.436 221.577 215.82 219.842C215.548 219.594 215.352 219.274 215.253 218.92C215.208 218.459 215.337 217.998 215.615 217.628C216.561 216.17 218.191 215.209 218.947 213.641C219.703 212.073 219.443 210.269 219.514 208.552C219.64 205.471 220.853 202.422 220.955 199.389C220.992 198.612 220.934 197.835 220.782 197.072C220.42 195.94 220.197 194.768 220.121 193.582C220.223 191.274 222.302 189.477 222.649 187.2C223.098 184.301 220.696 181.78 218.278 180.11C216.434 178.83 214.432 177.795 212.323 177.029C211.028 176.565 209.687 176.24 208.322 176.06C205.779 175.716 203.19 176.006 200.785 176.903C199.789 177.279 198.847 177.782 197.981 178.4C197.465 178.726 197.036 179.172 196.729 179.7C196.476 180.294 196.363 180.938 196.398 181.583C196.351 184.805 196.713 188.232 195.177 191.037C194.389 192.542 193.051 193.763 192.397 195.355C192.129 196.017 191.962 196.715 191.901 197.427C191.822 198.165 191.782 198.906 191.782 199.649C191.735 203.801 191.782 208.181 193.893 211.782C194.638 212.87 195.314 214.004 195.917 215.177C196.21 215.771 196.345 216.429 196.311 217.09C196.276 217.751 196.073 218.392 195.72 218.951C195.294 219.462 194.755 219.867 194.145 220.133C192.582 220.884 190.88 221.303 189.146 221.366C187.413 221.428 185.685 221.132 184.072 220.496C185.959 218.707 187.255 216.384 187.787 213.839C188.319 211.293 188.062 208.646 187.049 206.251C186.48 205.284 186.11 204.212 185.962 203.099C186.041 202.097 186.308 201.119 186.75 200.216C187.829 197.255 187.997 194.039 187.23 190.982C186.75 189.107 185.915 187.295 185.765 185.365C185.64 183.908 185.704 182.441 185.954 181C186.386 178.422 187.521 176.014 189.235 174.041C190.949 172.068 193.174 170.607 195.665 169.82C196.067 169.686 196.453 169.56 196.894 169.45C198.805 169.025 200.757 168.817 202.714 168.827C207.086 168.686 211.52 168.559 215.734 169.702C218.207 170.35 220.509 171.533 222.476 173.168C223.872 174.342 224.986 175.815 225.736 177.478C226.146 178.436 226.455 179.434 226.658 180.456C226.839 181.299 226.973 182.15 227.107 183.001C228.06 189.06 229.013 195.237 227.997 201.287C227.595 203.651 226.894 206.015 226.579 208.425C225.815 213.98 227.193 219.503 228.564 224.876Z" fill="#464353"/>
<path d="M200.58 232.66C201.389 232.66 202.045 232.004 202.045 231.195C202.045 230.385 201.389 229.729 200.58 229.729C199.771 229.729 199.115 230.385 199.115 231.195C199.115 232.004 199.771 232.66 200.58 232.66Z" fill="white"/>
<path d="M225.303 231.967C226.112 231.967 226.768 231.311 226.768 230.501C226.768 229.692 226.112 229.036 225.303 229.036C224.494 229.036 223.838 229.692 223.838 230.501C223.838 231.311 224.494 231.967 225.303 231.967Z" fill="white"/>
<path opacity="0.1" d="M200.58 157.135L197.43 151.187C197.629 150.949 197.848 150.728 198.083 150.525C198.538 150.245 199.071 150.118 199.603 150.163L200.58 157.135Z" fill="black"/>
<path opacity="0.1" d="M209.267 149.887L205.7 155.166L203.667 149.375C204.535 149.002 205.473 148.825 206.416 148.855C207.417 149.038 208.381 149.386 209.267 149.887Z" fill="black"/>
<g opacity="0.1">
<path opacity="0.1" d="M195.72 217.391C195.294 217.902 194.755 218.307 194.145 218.573C191.352 219.91 188.166 220.176 185.19 219.322C184.844 219.743 184.471 220.14 184.072 220.511C185.685 221.148 187.413 221.444 189.146 221.381C190.88 221.319 192.582 220.899 194.145 220.149C194.755 219.882 195.294 219.478 195.72 218.967C195.991 218.574 196.176 218.128 196.263 217.658C196.35 217.188 196.337 216.705 196.225 216.241C196.146 216.658 195.974 217.051 195.72 217.391Z" fill="black"/>
<path opacity="0.1" d="M187.175 191.006C187.432 192.038 187.583 193.094 187.624 194.157C187.715 192.568 187.563 190.974 187.175 189.43C186.695 187.555 185.86 185.743 185.71 183.812C185.71 183.568 185.71 183.324 185.671 183.072C185.633 183.844 185.646 184.618 185.71 185.388C185.86 187.318 186.695 189.13 187.175 191.006Z" fill="black"/>
<path opacity="0.1" d="M227.942 201.311C228.276 199.227 228.418 197.117 228.367 195.008C228.339 196.592 228.197 198.172 227.942 199.735C227.54 202.099 226.839 204.462 226.524 206.873C226.361 208.166 226.301 209.47 226.343 210.773C226.364 209.996 226.425 209.22 226.524 208.449C226.839 206.038 227.54 203.698 227.942 201.311Z" fill="black"/>
<path opacity="0.1" d="M187.017 204.691C186.605 203.915 186.272 203.099 186.025 202.256C185.958 202.54 185.926 202.831 185.931 203.123C186.079 204.236 186.448 205.307 187.017 206.274C187.596 207.595 187.929 209.01 188.002 210.45C188.144 208.479 187.807 206.503 187.017 204.691Z" fill="black"/>
<path opacity="0.1" d="M220.782 197.041C220.851 197.4 220.901 197.763 220.932 198.128C220.932 198.01 220.932 197.899 220.932 197.781C220.968 197.005 220.91 196.227 220.759 195.465C220.585 194.638 220.302 193.818 220.168 192.983C220.129 193.17 220.105 193.36 220.097 193.55C220.181 194.738 220.412 195.91 220.782 197.041Z" fill="black"/>
<path opacity="0.1" d="M215.82 218.234C215.699 218.107 215.586 217.973 215.481 217.832C215.288 218.148 215.207 218.52 215.253 218.888C215.352 219.243 215.548 219.562 215.82 219.81C217.436 221.545 219.418 222.898 221.623 223.769C223.827 224.64 226.199 225.007 228.564 224.844C228.43 224.324 228.296 223.812 228.17 223.269C225.87 223.374 223.574 222.979 221.442 222.11C219.309 221.24 217.391 219.918 215.82 218.234Z" fill="black"/>
<path opacity="0.1" d="M222.633 185.703C222.629 185.674 222.629 185.645 222.633 185.617C223.082 182.717 220.68 180.196 218.262 178.526C216.418 177.247 214.417 176.211 212.308 175.445C211.012 174.981 209.671 174.656 208.307 174.476C205.763 174.132 203.174 174.422 200.769 175.319C199.774 175.695 198.831 176.198 197.965 176.816C197.449 177.142 197.02 177.588 196.713 178.116C196.46 178.71 196.347 179.354 196.382 179.999C196.382 180.543 196.382 181.086 196.382 181.638V181.575C196.347 180.93 196.46 180.286 196.713 179.692C197.02 179.164 197.449 178.718 197.965 178.392C198.831 177.774 199.774 177.271 200.769 176.895C203.174 175.998 205.763 175.708 208.307 176.052C209.671 176.232 211.012 176.557 212.308 177.021C214.417 177.787 216.418 178.822 218.262 180.102C220.27 181.457 222.247 183.411 222.633 185.703Z" fill="black"/>
<path opacity="0.1" d="M195.177 189.477C194.389 190.982 193.051 192.203 192.397 193.795C192.129 194.457 191.962 195.155 191.901 195.867C191.822 196.605 191.782 197.346 191.782 198.089C191.782 198.758 191.782 199.436 191.782 200.113C191.782 199.964 191.782 199.814 191.782 199.664C191.782 198.922 191.822 198.18 191.901 197.442C191.962 196.731 192.129 196.033 192.397 195.37C193.051 193.795 194.358 192.558 195.177 191.053C196.445 188.689 196.421 185.971 196.398 183.269C196.502 185.407 196.083 187.538 195.177 189.477Z" fill="black"/>
</g>
<path opacity="0.1" d="M226.602 180.511C226.494 180.665 226.367 180.806 226.224 180.929C225.946 181.158 225.636 181.343 225.303 181.48C223.011 182.473 223.105 179.235 221.908 178.124C221.141 177.557 220.198 177.279 219.246 177.336C216.941 177.221 214.633 177.118 212.323 177.029C208.472 176.887 204.628 176.816 200.785 176.903C198.942 176.934 197.104 177.01 195.271 177.131C193.145 177.273 190.861 177.549 189.049 178.557C188.429 178.899 187.868 179.337 187.387 179.857C186.954 180.33 186.498 180.929 185.899 181.039C186.331 178.461 187.466 176.053 189.18 174.08C190.893 172.107 193.119 170.647 195.61 169.859C199.643 166.854 204.682 165.524 209.672 166.148C214.663 166.772 219.219 169.302 222.389 173.208C223.785 174.382 224.899 175.854 225.649 177.517C226.071 178.479 226.391 179.483 226.602 180.511Z" fill="black"/>
<path d="M225.303 179.905C223.011 180.897 223.106 177.659 221.908 176.548C221.141 175.982 220.199 175.703 219.246 175.761C211.265 175.235 203.261 175.167 195.272 175.556C192.428 175.745 189.309 176.17 187.395 178.282C186.907 178.817 186.395 179.511 185.663 179.487C185.419 177.911 185.245 176.273 185.127 174.658C185.056 174.053 185.088 173.44 185.222 172.845C185.419 172.168 185.868 171.593 186.096 170.931C186.321 170.089 186.401 169.215 186.332 168.347C186.367 165.132 187.23 161.981 188.839 159.199C190.448 156.416 192.748 154.096 195.516 152.463C196.21 152.124 196.855 151.689 197.43 151.171C197.629 150.933 197.848 150.712 198.083 150.509C198.538 150.229 199.071 150.102 199.603 150.147C199.981 150.147 200.391 150.147 200.722 150.147C201.74 150.035 202.736 149.769 203.675 149.359C204.542 148.987 205.481 148.809 206.424 148.839C207.425 149.022 208.389 149.371 209.275 149.871C209.701 150.077 210.147 150.238 210.606 150.352C211.323 150.517 212.063 150.509 212.78 150.651C213.941 150.947 215.043 151.437 216.041 152.101C217.231 152.743 218.332 153.538 219.317 154.465C220.388 155.689 221.245 157.084 221.853 158.593C222.896 160.677 223.69 162.877 224.216 165.148C224.854 168.41 224.539 171.939 226.051 174.902C226.973 176.761 227.816 178.825 225.303 179.905Z" fill="#FED253"/>
<path opacity="0.1" d="M185.379 177.431C185.379 177.431 201.706 162.572 226.02 174.894C226.02 174.894 198.572 168.646 185.379 177.431Z" fill="black"/>
<path d="M7.47447 253.357C5.25342 249.717 1.91396 246.385 2.43378 242.256C8.54562 242.957 14.3424 241.468 19.9423 238.876C25.5422 236.284 30.7404 232.92 35.9859 229.619C38.0494 228.319 40.105 227.043 42.1528 225.861C45.3978 224.001 48.6191 221.921 51.9192 220.102C56.6448 217.502 61.465 215.374 66.7734 214.965C67.735 214.89 68.6999 214.866 69.664 214.894C76.2011 215.02 82.9745 216.777 88.7241 213.846L89.0785 213.657C92.3392 211.868 94.7099 208.827 97.5059 206.361C99.516 204.622 101.705 203.101 104.035 201.823C108.28 199.459 112.88 197.569 117.22 195.339C118.331 194.767 119.385 194.091 120.37 193.322L121.11 192.731L121.276 192.589C121.457 192.44 121.638 192.29 121.811 192.132L122.15 191.833L122.497 191.518L122.764 191.266L123.198 190.856L123.245 190.801L123.93 190.123L124.206 189.847L124.686 189.351L124.97 189.067C125.45 188.571 125.931 188.067 126.419 187.578C126.907 187.09 127.569 186.428 128.16 185.885L128.727 185.38L128.892 185.238L129.349 184.86L129.562 184.679L130.01 184.332L130.231 184.159C130.452 183.994 130.68 183.836 130.908 183.679C131.119 183.533 131.34 183.404 131.57 183.292L130.097 179.723L134.334 177.974L192.775 319.829L188.53 321.579L155.104 240.428L154.867 240.665C147.124 248.308 137.639 253.954 127.23 257.115H127.167C121.347 258.872 114.833 260.117 109.934 263.379C108.197 264.508 106.688 265.954 105.484 267.641C104.334 269.28 103.531 271.147 102.334 272.723C102.106 273.015 101.853 273.298 101.601 273.566C100.169 274.986 98.5843 276.244 96.8758 277.316L96.1276 277.828C91.0531 281.4 85.7664 284.66 80.2967 287.59C77.1402 289.233 73.8492 290.604 70.4594 291.687C67.9942 292.475 65.4503 293.05 62.9851 293.83C61.3268 294.332 59.7164 294.981 58.1728 295.768C53.9984 297.95 50.7929 301.37 47.7606 305.018C45.1064 308.216 42.586 311.604 39.6719 314.519C37.8446 316.331 35.0644 318.049 32.8591 316.985L32.4101 316.725C32.481 316.607 32.5361 316.489 32.5991 316.363C34.3398 312.715 32.1975 308.208 29.3148 305.285C29.0155 304.978 28.7084 304.679 28.3933 304.395C28.0783 304.112 27.5112 303.607 27.0623 303.213C24.5971 301.094 21.9743 299.124 20.2652 296.39C18.9607 294.094 18.0753 291.584 17.6504 288.977C16.8628 285.266 16.3351 281.445 14.3188 278.285C12.9956 276.198 11.0266 274.417 9.59313 272.416C8.68702 271.232 8.09137 269.839 7.8604 268.366C7.53748 265.806 8.72676 263.3 9.1757 260.747C9.30926 260.052 9.36473 259.344 9.3411 258.636C9.17657 256.747 8.53422 254.93 7.47447 253.357Z" fill="url(#paint0_linear)"/>
<path d="M187.044 320.361L191.217 318.641L133.75 179.171L129.578 180.891L187.044 320.361Z" fill="#D6D8E1"/>
<path d="M15.7285 277.789C17.7054 280.901 18.2331 284.651 18.997 288.299C19.4208 290.863 20.2926 293.333 21.5725 295.595C23.258 298.281 25.8335 300.219 28.2514 302.299C28.6925 302.685 29.1335 303.087 29.5589 303.465C29.866 303.741 30.1732 304.041 30.4646 304.332C33.3 307.208 35.4029 311.643 33.6938 315.228C33.6413 315.35 33.5808 315.469 33.5126 315.583C33.651 315.677 33.7958 315.761 33.9458 315.835C36.1196 316.891 38.8526 315.205 40.6484 313.416C43.5153 310.548 45.9962 307.224 48.6032 304.08C51.5804 300.487 54.7387 297.123 58.8421 294.98C60.3569 294.204 61.9385 293.566 63.5677 293.074C65.9857 292.286 68.4903 291.726 70.9161 290.97C74.2481 289.904 77.4836 288.557 80.5879 286.944C85.9748 284.06 91.1825 280.853 96.1826 277.34L96.9229 276.836C98.6019 275.783 100.16 274.549 101.57 273.156C101.822 272.888 102.066 272.613 102.294 272.321C103.507 270.745 104.303 268.941 105.445 267.326C106.629 265.667 108.115 264.245 109.824 263.135C114.644 259.928 121.039 258.699 126.765 256.974H126.828C137.06 253.86 146.385 248.31 154.001 240.799C154.632 240.271 155.104 239.578 155.363 238.798C155.608 237.687 155.009 236.584 154.434 235.607C153.765 234.456 153.111 233.306 152.465 232.14C149.56 226.852 146.967 221.398 144.699 215.808C144.203 214.579 143.723 213.357 143.258 212.12C142.066 208.969 140.979 205.773 139.997 202.532C139.674 201.461 139.359 200.381 139.06 199.302C139.005 199.097 138.942 198.876 138.887 198.64C137.579 193.385 135.831 181.086 130.443 184.766C128.841 185.912 127.351 187.207 125.994 188.634C124.946 189.698 123.922 190.793 122.843 191.849C121.964 192.713 121.036 193.526 120.063 194.283C119.075 195.04 118.021 195.704 116.912 196.269C112.636 198.459 108.115 200.295 103.948 202.642C101.654 203.897 99.4996 205.391 97.5215 207.102C94.7728 209.528 92.4414 212.522 89.2359 214.279L88.8893 214.468C83.2343 217.344 76.579 215.618 70.1443 215.492C69.1985 215.469 68.2522 215.492 67.3089 215.563C62.087 215.957 57.3141 218.053 52.6988 220.614C49.4538 222.41 46.2876 224.443 43.0978 226.278C41.0816 227.436 39.0653 228.689 37.0332 229.973C31.8823 233.219 26.6605 236.623 21.2811 239.081C15.7678 241.587 10.0734 243.083 4.064 242.398C3.55205 246.456 6.8285 249.733 9.01805 253.31C10.0697 254.847 10.7072 256.63 10.8689 258.486C10.8979 259.18 10.8477 259.876 10.7193 260.558C10.2782 263.072 9.14406 265.53 9.4276 268.059C9.6511 269.501 10.2334 270.864 11.121 272.022C12.4914 273.984 14.421 275.74 15.7285 277.789Z" fill="#F86D70"/>
<path d="M175.857 294.2C175.857 294.2 182.757 300.22 189.75 303.426C196.744 306.633 192.113 318.136 192.113 318.136C192.113 318.136 184.702 319.837 179.512 312.62C174.321 305.404 175.857 294.2 175.857 294.2Z" fill="#FBBEBE"/>
<path d="M43.5576 30.4152C40.6278 30.4152 38.3901 29.5502 36.8445 27.82C35.2989 26.0898 34.5261 23.333 34.5261 19.5497V7.43845H39.6474V20.0688C39.6474 22.2834 39.9819 23.829 40.6509 24.7056C41.3199 25.5823 42.2888 26.0206 43.5576 26.0206C44.8264 26.0206 45.8068 25.5823 46.4989 24.7056C47.191 23.829 47.537 22.2834 47.537 20.0688V7.43845H52.4507V19.5497C52.4507 23.333 51.6895 26.0898 50.1669 27.82C48.6674 29.5502 46.4643 30.4152 43.5576 30.4152ZM57.262 30V5.74287H62.3487V11.6947L62.1065 14.7744C62.7524 14.1977 63.5022 13.6671 64.3557 13.1826C65.2093 12.6751 66.2243 12.4214 67.4008 12.4214C69.2694 12.4214 70.619 13.0327 71.4495 14.2554C72.303 15.478 72.7298 17.1736 72.7298 19.3421V30H67.6431V19.9996C67.6431 18.7538 67.47 17.9003 67.124 17.4389C66.801 16.9775 66.2705 16.7468 65.5322 16.7468C64.8863 16.7468 64.3327 16.8968 63.8713 17.1967C63.4099 17.4735 62.9024 17.8772 62.3487 18.4078V30H57.262ZM91.3287 30.4152C90.2444 30.4152 89.1948 30.2192 88.1798 29.827C87.1647 29.4117 86.265 28.8235 85.4807 28.0622C84.7194 27.3009 84.1081 26.3666 83.6467 25.2593C83.1853 24.1289 82.9546 22.8486 82.9546 21.4183C82.9546 19.988 83.1853 18.7192 83.6467 17.6119C84.1081 16.4815 84.7194 15.5357 85.4807 14.7744C86.265 14.0131 87.1647 13.4364 88.1798 13.0442C89.1948 12.629 90.2444 12.4214 91.3287 12.4214C92.4129 12.4214 93.451 12.629 94.443 13.0442C95.4581 13.4364 96.3462 14.0131 97.1075 14.7744C97.8918 15.5357 98.5147 16.4815 98.9761 17.6119C99.4375 18.7192 99.6682 19.988 99.6682 21.4183C99.6682 22.8486 99.4375 24.1289 98.9761 25.2593C98.5147 26.3666 97.8918 27.3009 97.1075 28.0622C96.3462 28.8235 95.4581 29.4117 94.443 29.827C93.451 30.2192 92.4129 30.4152 91.3287 30.4152ZM91.3287 26.2974C92.3668 26.2974 93.1511 25.8591 93.6817 24.9825C94.2123 24.1059 94.4776 22.9178 94.4776 21.4183C94.4776 19.9188 94.2123 18.7308 93.6817 17.8541C93.1511 16.9775 92.3668 16.5392 91.3287 16.5392C90.2675 16.5392 89.4716 16.9775 88.941 17.8541C88.4335 18.7308 88.1798 19.9188 88.1798 21.4183C88.1798 22.9178 88.4335 24.1059 88.941 24.9825C89.4716 25.8591 90.2675 26.2974 91.3287 26.2974ZM103.152 30V5.74287H108.239V11.6947L107.997 14.7744C108.643 14.1977 109.392 13.6671 110.246 13.1826C111.1 12.6751 112.115 12.4214 113.291 12.4214C115.16 12.4214 116.509 13.0327 117.34 14.2554C118.193 15.478 118.62 17.1736 118.62 19.3421V30H113.533V19.9996C113.533 18.7538 113.36 17.9003 113.014 17.4389C112.691 16.9775 112.161 16.7468 111.423 16.7468C110.777 16.7468 110.223 16.8968 109.762 17.1967C109.3 17.4735 108.793 17.8772 108.239 18.4078V30H103.152ZM124.893 22.0066L124.167 11.4179L123.994 6.81559H129.115L128.942 11.4179L128.215 22.0066H124.893ZM126.554 30.4152C125.678 30.4152 124.94 30.1153 124.34 29.5155C123.763 28.8927 123.475 28.1314 123.475 27.2317C123.475 26.3089 123.763 25.5477 124.34 24.9479C124.94 24.325 125.678 24.0136 126.554 24.0136C127.431 24.0136 128.158 24.325 128.734 24.9479C129.334 25.5477 129.634 26.3089 129.634 27.2317C129.634 28.1314 129.334 28.8927 128.734 29.5155C128.158 30.1153 127.431 30.4152 126.554 30.4152Z" fill="#464353"/>
<path d="M37.7292 64.3699C36.7603 64.3699 35.8616 64.1874 35.0331 63.8223C34.2046 63.4572 33.4885 62.9587 32.8846 62.3268L33.9378 61.1052C34.4293 61.6247 35.005 62.046 35.665 62.369C36.339 62.6779 37.0341 62.8323 37.7502 62.8323C38.6629 62.8323 39.3721 62.6287 39.8776 62.2215C40.3831 61.8003 40.6359 61.2526 40.6359 60.5786C40.6359 60.2275 40.5727 59.9327 40.4463 59.6939C40.334 59.4412 40.1725 59.2306 39.9618 59.0621C39.7653 58.8795 39.5265 58.718 39.2457 58.5776C38.9649 58.4372 38.6629 58.2897 38.34 58.1353L36.3601 57.2717C36.0371 57.1313 35.7071 56.9628 35.3701 56.7662C35.0331 56.5696 34.7312 56.3309 34.4644 56.05C34.1976 55.7692 33.9799 55.4392 33.8114 55.0601C33.6429 54.6669 33.5587 54.2175 33.5587 53.712C33.5587 53.1925 33.664 52.708 33.8746 52.2587C34.0993 51.8093 34.4012 51.4232 34.7803 51.1002C35.1735 50.7632 35.6299 50.5034 36.1494 50.3209C36.683 50.1383 37.2658 50.0471 37.8977 50.0471C38.7261 50.0471 39.4914 50.2085 40.1935 50.5315C40.8956 50.8404 41.4924 51.2477 41.9839 51.7532L41.0361 52.8906C40.6148 52.4834 40.1444 52.1674 39.6248 51.9427C39.1193 51.704 38.5436 51.5847 37.8977 51.5847C37.1253 51.5847 36.5005 51.7672 36.023 52.1323C35.5597 52.4834 35.328 52.9748 35.328 53.6067C35.328 53.9437 35.3912 54.2316 35.5175 54.4703C35.658 54.695 35.8405 54.8986 36.0652 55.0811C36.2898 55.2496 36.5356 55.4041 36.8024 55.5445C37.0692 55.6709 37.343 55.7903 37.6238 55.9026L39.5827 56.7451C39.9759 56.9136 40.348 57.1102 40.699 57.3349C41.0501 57.5455 41.352 57.7983 41.6048 58.0932C41.8575 58.374 42.0541 58.711 42.1945 59.1042C42.349 59.4833 42.4262 59.9256 42.4262 60.4312C42.4262 60.9788 42.3139 61.4913 42.0892 61.9688C41.8786 62.4462 41.5697 62.8674 41.1624 63.2325C40.7552 63.5836 40.2637 63.8644 39.688 64.0751C39.1123 64.2716 38.4593 64.3699 37.7292 64.3699ZM48.9596 64.3699C48.3277 64.3699 47.7239 64.2506 47.1481 64.0119C46.5864 63.7732 46.088 63.4291 45.6527 62.9798C45.2173 62.5164 44.8663 61.9547 44.5995 61.2947C44.3467 60.6207 44.2204 59.8624 44.2204 59.0199C44.2204 58.1634 44.3467 57.4051 44.5995 56.7451C44.8663 56.0711 45.2173 55.5024 45.6527 55.039C46.088 54.5756 46.5864 54.2246 47.1481 53.9859C47.7239 53.7471 48.3277 53.6278 48.9596 53.6278C49.5914 53.6278 50.1882 53.7471 50.7499 53.9859C51.3256 54.2246 51.8311 54.5756 52.2665 55.039C52.7018 55.5024 53.0458 56.0711 53.2985 56.7451C53.5653 57.4051 53.6987 58.1634 53.6987 59.0199C53.6987 59.8624 53.5653 60.6207 53.2985 61.2947C53.0458 61.9547 52.7018 62.5164 52.2665 62.9798C51.8311 63.4291 51.3256 63.7732 50.7499 64.0119C50.1882 64.2506 49.5914 64.3699 48.9596 64.3699ZM48.9596 62.9377C49.3949 62.9377 49.7951 62.8464 50.1601 62.6638C50.5252 62.4672 50.8342 62.2004 51.0869 61.8634C51.3537 61.5124 51.5573 61.0981 51.6978 60.6207C51.8382 60.1433 51.9084 59.6097 51.9084 59.0199C51.9084 58.4302 51.8382 57.8966 51.6978 57.4191C51.5573 56.9277 51.3537 56.5064 51.0869 56.1553C50.8342 55.8043 50.5252 55.5375 50.1601 55.355C49.7951 55.1584 49.3949 55.0601 48.9596 55.0601C48.5242 55.0601 48.1241 55.1584 47.759 55.355C47.3939 55.5375 47.0779 55.8043 46.8111 56.1553C46.5584 56.5064 46.3618 56.9277 46.2214 57.4191C46.0809 57.8966 46.0107 58.4302 46.0107 59.0199C46.0107 59.6097 46.0809 60.1433 46.2214 60.6207C46.3618 61.0981 46.5584 61.5124 46.8111 61.8634C47.0779 62.2004 47.3939 62.4672 47.759 62.6638C48.1241 62.8464 48.5242 62.9377 48.9596 62.9377ZM56.3946 64.1172V53.8805H57.8269L57.9744 55.355H58.0376C58.4869 54.8635 58.9714 54.4563 59.4909 54.1333C60.0245 53.7963 60.6002 53.6278 61.2181 53.6278C62.0044 53.6278 62.6153 53.8033 63.0506 54.1544C63.4999 54.4914 63.8299 54.9688 64.0405 55.5866C64.5741 54.9969 65.1077 54.5265 65.6413 54.1754C66.189 53.8103 66.7787 53.6278 67.4106 53.6278C68.4638 53.6278 69.2431 53.9648 69.7486 54.6388C70.2682 55.3128 70.528 56.3098 70.528 57.6298V64.1172H68.8008V57.8615C68.8008 56.8926 68.6463 56.1975 68.3374 55.7762C68.0285 55.3409 67.5511 55.1233 66.9051 55.1233C66.1328 55.1233 65.2762 55.6498 64.3354 56.703V64.1172H62.6083V57.8615C62.6083 56.8926 62.4538 56.1975 62.1449 55.7762C61.8359 55.3409 61.3515 55.1233 60.6915 55.1233C59.9192 55.1233 59.0626 55.6498 58.1218 56.703V64.1172H56.3946ZM78.0075 64.3699C77.3194 64.3699 76.6735 64.2506 76.0697 64.0119C75.4799 63.7591 74.9604 63.4081 74.511 62.9587C74.0757 62.4953 73.7317 61.9336 73.4789 61.2737C73.2262 60.6137 73.0998 59.8624 73.0998 59.0199C73.0998 58.1774 73.2262 57.4262 73.4789 56.7662C73.7457 56.0922 74.0898 55.5235 74.511 55.0601C74.9463 54.5967 75.4378 54.2456 75.9854 54.0069C76.5331 53.7542 77.1018 53.6278 77.6915 53.6278C78.3375 53.6278 78.9132 53.7401 79.4187 53.9648C79.9383 54.1895 80.3666 54.5124 80.7036 54.9337C81.0546 55.355 81.3214 55.8605 81.504 56.4502C81.6865 57.04 81.7778 57.7 81.7778 58.4302C81.7778 58.6127 81.7708 58.7953 81.7567 58.9778C81.7567 59.1463 81.7427 59.2937 81.7146 59.4201H74.8059C74.8761 60.5154 75.2131 61.386 75.8169 62.0319C76.4348 62.6638 77.2352 62.9798 78.2181 62.9798C78.7096 62.9798 79.1589 62.9096 79.5662 62.7692C79.9874 62.6147 80.3876 62.4181 80.7668 62.1794L81.3776 63.3168C80.9282 63.5976 80.4297 63.8434 79.8821 64.054C79.3345 64.2646 78.7096 64.3699 78.0075 64.3699ZM74.7848 58.1774H80.2612C80.2612 57.1383 80.0366 56.3519 79.5872 55.8183C79.1519 55.2707 78.5341 54.9969 77.7337 54.9969C77.3686 54.9969 77.0175 55.0671 76.6805 55.2075C76.3576 55.3479 76.0627 55.5586 75.7959 55.8394C75.5291 56.1062 75.3044 56.4362 75.1219 56.8294C74.9533 57.2225 74.841 57.6719 74.7848 58.1774ZM87.3243 64.3699C86.7766 64.3699 86.3133 64.2857 85.9341 64.1172C85.569 63.9487 85.2671 63.717 85.0284 63.4221C84.8037 63.1272 84.6422 62.7692 84.544 62.3479C84.4457 61.9266 84.3965 61.4632 84.3965 60.9577V55.2918H82.88V53.9859L84.4808 53.8805L84.6914 51.016H86.1447V53.8805H88.904V55.2918H86.1447V60.9788C86.1447 61.6107 86.2571 62.1022 86.4818 62.4532C86.7205 62.7902 87.1347 62.9587 87.7245 62.9587C87.907 62.9587 88.1036 62.9306 88.3142 62.8745C88.5249 62.8183 88.7144 62.7551 88.8829 62.6849L89.22 63.9908C88.9391 64.0891 88.6302 64.1734 88.2932 64.2436C87.9702 64.3278 87.6472 64.3699 87.3243 64.3699ZM91.2186 64.1172V49.1203H92.9458V53.2065L92.8826 55.3128C93.3741 54.8494 93.8866 54.4563 94.4202 54.1333C94.9538 53.7963 95.5787 53.6278 96.2948 53.6278C97.3761 53.6278 98.1624 53.9648 98.6539 54.6388C99.1594 55.3128 99.4122 56.3098 99.4122 57.6298V64.1172H97.685V57.8615C97.685 56.8926 97.5305 56.1975 97.2216 55.7762C96.9127 55.3409 96.4212 55.1233 95.7472 55.1233C95.2136 55.1233 94.7432 55.2567 94.336 55.5235C93.9288 55.7903 93.4654 56.1834 92.9458 56.703V64.1172H91.2186ZM102.676 64.1172V53.8805H104.403V64.1172H102.676ZM103.56 51.7742C103.223 51.7742 102.936 51.6689 102.697 51.4583C102.472 51.2477 102.36 50.9809 102.36 50.6579C102.36 50.3209 102.472 50.0541 102.697 49.8575C102.936 49.6469 103.223 49.5415 103.56 49.5415C103.897 49.5415 104.178 49.6469 104.403 49.8575C104.642 50.0541 104.761 50.3209 104.761 50.6579C104.761 50.9809 104.642 51.2477 104.403 51.4583C104.178 51.6689 103.897 51.7742 103.56 51.7742ZM107.859 64.1172V53.8805H109.292L109.439 55.355H109.502C109.994 54.8635 110.506 54.4563 111.04 54.1333C111.587 53.7963 112.219 53.6278 112.935 53.6278C114.017 53.6278 114.803 53.9648 115.295 54.6388C115.8 55.3128 116.053 56.3098 116.053 57.6298V64.1172H114.326V57.8615C114.326 56.8926 114.171 56.1975 113.862 55.7762C113.553 55.3409 113.062 55.1233 112.388 55.1233C111.854 55.1233 111.384 55.2567 110.977 55.5235C110.569 55.7903 110.106 56.1834 109.586 56.703V64.1172H107.859ZM122.832 68.8353C122.201 68.8353 121.625 68.7721 121.105 68.6457C120.586 68.5334 120.136 68.3579 119.757 68.1192C119.392 67.8805 119.104 67.5926 118.894 67.2556C118.697 66.9186 118.599 66.5254 118.599 66.0761C118.599 65.6407 118.732 65.2265 118.999 64.8333C119.266 64.4402 119.631 64.0821 120.094 63.7591V63.6749C119.842 63.5204 119.624 63.3098 119.441 63.043C119.273 62.7621 119.189 62.4181 119.189 62.0109C119.189 61.5756 119.308 61.1964 119.547 60.8735C119.785 60.5505 120.038 60.2978 120.305 60.1152V60.031C119.968 59.7501 119.659 59.378 119.378 58.9146C119.111 58.4372 118.978 57.8895 118.978 57.2717C118.978 56.71 119.076 56.2045 119.273 55.7552C119.483 55.3058 119.764 54.9267 120.115 54.6177C120.466 54.2948 120.874 54.049 121.337 53.8805C121.814 53.712 122.313 53.6278 122.832 53.6278C123.113 53.6278 123.373 53.6559 123.612 53.712C123.865 53.7542 124.089 53.8103 124.286 53.8805H127.846V55.2075H125.739C125.978 55.4462 126.174 55.7481 126.329 56.1132C126.497 56.4783 126.582 56.8785 126.582 57.3138C126.582 57.8615 126.483 58.3599 126.287 58.8093C126.09 59.2446 125.823 59.6167 125.486 59.9256C125.149 60.2205 124.749 60.4522 124.286 60.6207C123.836 60.7892 123.352 60.8735 122.832 60.8735C122.58 60.8735 122.32 60.8454 122.053 60.7892C121.786 60.719 121.534 60.6277 121.295 60.5154C121.112 60.6699 120.958 60.8454 120.832 61.042C120.705 61.2245 120.642 61.4562 120.642 61.7371C120.642 62.06 120.768 62.3268 121.021 62.5375C121.274 62.7481 121.751 62.8534 122.453 62.8534H124.433C125.627 62.8534 126.519 63.05 127.108 63.4432C127.712 63.8223 128.014 64.4402 128.014 65.2967C128.014 65.7741 127.895 66.2235 127.656 66.6448C127.417 67.0801 127.073 67.4592 126.624 67.7822C126.174 68.1051 125.627 68.3579 124.981 68.5404C124.349 68.737 123.633 68.8353 122.832 68.8353ZM122.832 59.715C123.127 59.715 123.401 59.6588 123.654 59.5465C123.921 59.4342 124.152 59.2727 124.349 59.0621C124.56 58.8514 124.721 58.5987 124.833 58.3038C124.946 57.9949 125.002 57.6508 125.002 57.2717C125.002 56.5134 124.791 55.9307 124.37 55.5235C123.949 55.1022 123.436 54.8916 122.832 54.8916C122.229 54.8916 121.716 55.1022 121.295 55.5235C120.874 55.9307 120.663 56.5134 120.663 57.2717C120.663 57.6508 120.719 57.9949 120.832 58.3038C120.944 58.5987 121.098 58.8514 121.295 59.0621C121.506 59.2727 121.737 59.4342 121.99 59.5465C122.257 59.6588 122.538 59.715 122.832 59.715ZM123.085 67.6347C123.577 67.6347 124.019 67.5715 124.412 67.4452C124.819 67.3328 125.163 67.1784 125.444 66.9818C125.725 66.7992 125.943 66.5816 126.097 66.3288C126.252 66.0761 126.329 65.8163 126.329 65.5495C126.329 65.072 126.153 64.7421 125.802 64.5595C125.451 64.377 124.939 64.2857 124.265 64.2857H122.495C122.299 64.2857 122.081 64.2716 121.843 64.2436C121.618 64.2295 121.393 64.1874 121.169 64.1172C120.803 64.384 120.537 64.6648 120.368 64.9597C120.2 65.2546 120.115 65.5495 120.115 65.8444C120.115 66.392 120.375 66.8273 120.895 67.1503C121.428 67.4732 122.158 67.6347 123.085 67.6347ZM138.737 64.3699C138.26 64.3699 137.761 64.2576 137.242 64.0329C136.736 63.7942 136.259 63.4713 135.809 63.064H135.746L135.599 64.1172H134.209V49.1203H135.936V53.2065L135.894 55.0601C136.357 54.6529 136.863 54.3158 137.41 54.049C137.958 53.7682 138.52 53.6278 139.095 53.6278C139.755 53.6278 140.338 53.7542 140.844 54.0069C141.349 54.2456 141.77 54.5967 142.107 55.0601C142.458 55.5094 142.718 56.0571 142.887 56.703C143.069 57.3349 143.16 58.044 143.16 58.8304C143.16 59.701 143.041 60.4803 142.802 61.1684C142.564 61.8564 142.241 62.4392 141.834 62.9166C141.426 63.394 140.956 63.7591 140.422 64.0119C139.889 64.2506 139.327 64.3699 138.737 64.3699ZM138.442 62.9166C138.864 62.9166 139.25 62.8253 139.601 62.6428C139.966 62.4462 140.275 62.1794 140.528 61.8424C140.794 61.4913 140.998 61.063 141.138 60.5575C141.293 60.052 141.37 59.4833 141.37 58.8514C141.37 58.2897 141.321 57.7772 141.223 57.3138C141.124 56.8504 140.963 56.4573 140.738 56.1343C140.528 55.7973 140.247 55.5375 139.896 55.355C139.559 55.1724 139.151 55.0811 138.674 55.0811C137.846 55.0811 136.933 55.5445 135.936 56.4713V61.8424C136.385 62.2356 136.828 62.5164 137.263 62.6849C137.712 62.8394 138.105 62.9166 138.442 62.9166ZM145.851 64.1172V53.8805H147.283L147.431 55.7341H147.494C147.845 55.0882 148.266 54.5756 148.758 54.1965C149.263 53.8173 149.811 53.6278 150.401 53.6278C150.808 53.6278 151.173 53.698 151.496 53.8384L151.159 55.355C150.99 55.2988 150.836 55.2567 150.695 55.2286C150.555 55.2005 150.38 55.1864 150.169 55.1864C149.734 55.1864 149.277 55.362 148.8 55.713C148.336 56.0641 147.929 56.6749 147.578 57.5455V64.1172H145.851ZM156.928 64.3699C156.296 64.3699 155.693 64.2506 155.117 64.0119C154.555 63.7732 154.057 63.4291 153.621 62.9798C153.186 62.5164 152.835 61.9547 152.568 61.2947C152.316 60.6207 152.189 59.8624 152.189 59.0199C152.189 58.1634 152.316 57.4051 152.568 56.7451C152.835 56.0711 153.186 55.5024 153.621 55.039C154.057 54.5756 154.555 54.2246 155.117 53.9859C155.693 53.7471 156.296 53.6278 156.928 53.6278C157.56 53.6278 158.157 53.7471 158.719 53.9859C159.294 54.2246 159.8 54.5756 160.235 55.039C160.671 55.5024 161.015 56.0711 161.267 56.7451C161.534 57.4051 161.668 58.1634 161.668 59.0199C161.668 59.8624 161.534 60.6207 161.267 61.2947C161.015 61.9547 160.671 62.5164 160.235 62.9798C159.8 63.4291 159.294 63.7732 158.719 64.0119C158.157 64.2506 157.56 64.3699 156.928 64.3699ZM156.928 62.9377C157.364 62.9377 157.764 62.8464 158.129 62.6638C158.494 62.4672 158.803 62.2004 159.056 61.8634C159.322 61.5124 159.526 61.0981 159.667 60.6207C159.807 60.1433 159.877 59.6097 159.877 59.0199C159.877 58.4302 159.807 57.8966 159.667 57.4191C159.526 56.9277 159.322 56.5064 159.056 56.1553C158.803 55.8043 158.494 55.5375 158.129 55.355C157.764 55.1584 157.364 55.0601 156.928 55.0601C156.493 55.0601 156.093 55.1584 155.728 55.355C155.363 55.5375 155.047 55.8043 154.78 56.1553C154.527 56.5064 154.331 56.9277 154.19 57.4191C154.05 57.8966 153.979 58.4302 153.979 59.0199C153.979 59.6097 154.05 60.1433 154.19 60.6207C154.331 61.0981 154.527 61.5124 154.78 61.8634C155.047 62.2004 155.363 62.4672 155.728 62.6638C156.093 62.8464 156.493 62.9377 156.928 62.9377ZM164.363 64.1172V49.1203H166.07V59.2727H166.133L170.493 53.8805H172.41L168.976 57.9878L172.873 64.1172H170.977L167.986 59.1884L166.07 61.4211V64.1172H164.363ZM178.571 64.3699C177.883 64.3699 177.237 64.2506 176.633 64.0119C176.044 63.7591 175.524 63.4081 175.075 62.9587C174.64 62.4953 174.295 61.9336 174.043 61.2737C173.79 60.6137 173.664 59.8624 173.664 59.0199C173.664 58.1774 173.79 57.4262 174.043 56.7662C174.31 56.0922 174.654 55.5235 175.075 55.0601C175.51 54.5967 176.002 54.2456 176.549 54.0069C177.097 53.7542 177.666 53.6278 178.255 53.6278C178.901 53.6278 179.477 53.7401 179.983 53.9648C180.502 54.1895 180.93 54.5124 181.267 54.9337C181.618 55.355 181.885 55.8605 182.068 56.4502C182.25 57.04 182.342 57.7 182.342 58.4302C182.342 58.6127 182.335 58.7953 182.321 58.9778C182.321 59.1463 182.306 59.2937 182.278 59.4201H175.37C175.44 60.5154 175.777 61.386 176.381 62.0319C176.999 62.6638 177.799 62.9798 178.782 62.9798C179.273 62.9798 179.723 62.9096 180.13 62.7692C180.551 62.6147 180.951 62.4181 181.331 62.1794L181.941 63.3168C181.492 63.5976 180.994 63.8434 180.446 64.054C179.898 64.2646 179.273 64.3699 178.571 64.3699ZM175.349 58.1774H180.825C180.825 57.1383 180.6 56.3519 180.151 55.8183C179.716 55.2707 179.098 54.9969 178.297 54.9969C177.932 54.9969 177.581 55.0671 177.244 55.2075C176.921 55.3479 176.626 55.5586 176.36 55.8394C176.093 56.1062 175.868 56.4362 175.686 56.8294C175.517 57.2225 175.405 57.6719 175.349 58.1774ZM189.994 56.7662C189.643 56.7662 189.341 56.6468 189.088 56.4081C188.849 56.1553 188.73 55.8394 188.73 55.4603C188.73 55.053 188.849 54.7301 189.088 54.4914C189.341 54.2386 189.643 54.1122 189.994 54.1122C190.331 54.1122 190.618 54.2386 190.857 54.4914C191.11 54.7301 191.236 55.053 191.236 55.4603C191.236 55.8394 191.11 56.1553 190.857 56.4081C190.618 56.6468 190.331 56.7662 189.994 56.7662ZM189.994 64.3699C189.643 64.3699 189.341 64.2506 189.088 64.0119C188.849 63.7591 188.73 63.4432 188.73 63.064C188.73 62.6568 188.849 62.3338 189.088 62.0951C189.341 61.8424 189.643 61.716 189.994 61.716C190.331 61.716 190.618 61.8424 190.857 62.0951C191.11 62.3338 191.236 62.6568 191.236 63.064C191.236 63.4432 191.11 63.7591 190.857 64.0119C190.618 64.2506 190.331 64.3699 189.994 64.3699ZM197.113 67.8243C196.243 66.4201 195.562 64.9386 195.07 63.38C194.579 61.8213 194.333 60.1152 194.333 58.2617C194.333 56.4081 194.579 54.709 195.07 53.1644C195.562 51.6057 196.243 50.1173 197.113 48.699L198.188 49.2045C197.373 50.5526 196.762 51.9989 196.355 53.5435C195.962 55.0741 195.765 56.6468 195.765 58.2617C195.765 59.8765 195.962 61.4562 196.355 63.0008C196.762 64.5314 197.373 65.9707 198.188 67.3188L197.113 67.8243Z" fill="#B1ABCB"/>
<g opacity="0.59">
<path fill-rule="evenodd" clip-rule="evenodd" d="M107.46 578.528L140.285 573.297L120.156 592.116L88.7918 596.724L107.46 578.528Z" fill="#03DFD8" fill-opacity="0.15"/>
<path opacity="0.5" fill-rule="evenodd" clip-rule="evenodd" d="M99.3156 576.334L132.14 571.103L112.012 589.921L80.6473 594.529L99.3156 576.334Z" fill="#03DFD8"/>
<path fill-rule="evenodd" clip-rule="evenodd" d="M89.5345 574.244L122.359 569.013L102.23 587.832L70.8662 592.44L89.5345 574.244Z" fill="#03DFD8"/>
<path d="M153.588 591.976C153.066 591.976 152.537 591.853 152.001 591.608C151.479 591.347 150.981 590.979 150.506 590.504H150.437L150.207 591.7H148.114V575.462H150.759V579.648L150.69 581.534C151.165 581.12 151.679 580.782 152.231 580.522C152.798 580.261 153.373 580.131 153.956 580.131C154.661 580.131 155.29 580.269 155.842 580.545C156.394 580.805 156.861 581.189 157.245 581.695C157.628 582.185 157.919 582.783 158.119 583.489C158.318 584.194 158.418 584.984 158.418 585.858C158.418 586.824 158.28 587.69 158.004 588.457C157.743 589.208 157.39 589.844 156.946 590.366C156.501 590.887 155.987 591.286 155.405 591.562C154.822 591.838 154.216 591.976 153.588 591.976ZM153.036 589.791C153.787 589.791 154.416 589.469 154.922 588.825C155.428 588.165 155.681 587.192 155.681 585.904C155.681 584.769 155.489 583.887 155.106 583.259C154.722 582.63 154.101 582.316 153.243 582.316C152.445 582.316 151.617 582.737 150.759 583.581V588.848C151.157 589.2 151.548 589.446 151.932 589.584C152.33 589.722 152.698 589.791 153.036 589.791ZM165.697 591.976C164.991 591.976 164.317 591.845 163.673 591.585C163.029 591.324 162.454 590.941 161.948 590.435C161.457 589.929 161.066 589.308 160.775 588.572C160.483 587.836 160.338 587 160.338 586.065C160.338 585.129 160.483 584.294 160.775 583.558C161.066 582.822 161.457 582.201 161.948 581.695C162.454 581.189 163.029 580.805 163.673 580.545C164.317 580.269 164.991 580.131 165.697 580.131C166.402 580.131 167.077 580.269 167.721 580.545C168.38 580.805 168.955 581.189 169.446 581.695C169.936 582.201 170.327 582.822 170.619 583.558C170.925 584.294 171.079 585.129 171.079 586.065C171.079 587 170.925 587.836 170.619 588.572C170.327 589.308 169.936 589.929 169.446 590.435C168.955 590.941 168.38 591.324 167.721 591.585C167.077 591.845 166.402 591.976 165.697 591.976ZM165.697 589.814C166.525 589.814 167.176 589.476 167.652 588.802C168.127 588.112 168.365 587.199 168.365 586.065C168.365 584.915 168.127 584.002 167.652 583.328C167.176 582.638 166.525 582.293 165.697 582.293C164.869 582.293 164.217 582.638 163.742 583.328C163.282 584.002 163.052 584.915 163.052 586.065C163.052 587.199 163.282 588.112 163.742 588.802C164.217 589.476 164.869 589.814 165.697 589.814ZM171.823 591.7L175.411 585.812L172.053 580.407H174.905L176.17 582.546C176.339 582.852 176.508 583.174 176.676 583.512C176.86 583.834 177.037 584.148 177.205 584.455H177.297C177.435 584.148 177.581 583.834 177.734 583.512C177.888 583.174 178.033 582.852 178.171 582.546L179.252 580.407H181.989L178.654 586.111L182.242 591.7H179.39L178.01 589.469C177.826 589.131 177.635 588.794 177.435 588.457C177.251 588.119 177.06 587.79 176.86 587.468H176.768C176.6 587.79 176.431 588.119 176.262 588.457C176.109 588.779 175.948 589.116 175.779 589.469L174.583 591.7H171.823ZM187.381 591.976C186.584 591.976 185.825 591.83 185.104 591.539C184.384 591.247 183.755 590.879 183.218 590.435L184.161 589.17C184.652 589.568 185.15 589.89 185.656 590.136C186.178 590.381 186.776 590.504 187.45 590.504C188.186 590.504 188.738 590.335 189.106 589.998C189.474 589.66 189.658 589.246 189.658 588.756C189.658 588.464 189.582 588.211 189.428 587.997C189.275 587.782 189.076 587.598 188.83 587.445C188.6 587.276 188.332 587.13 188.025 587.008C187.719 586.885 187.412 586.762 187.105 586.64C186.707 586.502 186.308 586.348 185.909 586.18C185.511 585.996 185.15 585.781 184.828 585.536C184.522 585.275 184.269 584.976 184.069 584.639C183.87 584.301 183.77 583.895 183.77 583.42C183.77 582.975 183.855 582.561 184.023 582.178C184.207 581.779 184.46 581.442 184.782 581.166C185.12 580.874 185.526 580.652 186.001 580.499C186.477 580.33 187.013 580.246 187.611 580.246C188.317 580.246 188.961 580.368 189.543 580.614C190.141 580.859 190.655 581.158 191.084 581.511L190.187 582.707C189.804 582.415 189.405 582.178 188.991 581.994C188.577 581.81 188.125 581.718 187.634 581.718C186.929 581.718 186.408 581.879 186.07 582.201C185.748 582.523 185.587 582.898 185.587 583.328C185.587 583.588 185.656 583.818 185.794 584.018C185.932 584.202 186.116 584.37 186.346 584.524C186.576 584.662 186.837 584.792 187.128 584.915C187.435 585.022 187.749 585.137 188.071 585.26C188.47 585.413 188.869 585.574 189.267 585.743C189.681 585.911 190.049 586.126 190.371 586.387C190.693 586.632 190.954 586.939 191.153 587.307C191.368 587.675 191.475 588.119 191.475 588.641C191.475 589.101 191.383 589.53 191.199 589.929C191.031 590.327 190.77 590.68 190.417 590.987C190.08 591.293 189.651 591.531 189.129 591.7C188.623 591.884 188.041 591.976 187.381 591.976ZM194.096 591.7V575.324H195.982V579.786L195.913 582.086C196.45 581.58 197.01 581.15 197.592 580.798C198.175 580.43 198.857 580.246 199.639 580.246C200.82 580.246 201.679 580.614 202.215 581.35C202.767 582.086 203.043 583.174 203.043 584.616V591.7H201.157V584.869C201.157 583.811 200.989 583.052 200.651 582.592C200.314 582.116 199.777 581.879 199.041 581.879C198.459 581.879 197.945 582.024 197.5 582.316C197.056 582.607 196.55 583.036 195.982 583.604V591.7H194.096ZM209.183 591.976C208.248 591.976 207.466 591.7 206.837 591.148C206.224 590.596 205.917 589.814 205.917 588.802C205.917 587.575 206.461 586.64 207.55 585.996C208.639 585.336 210.379 584.876 212.771 584.616C212.771 584.263 212.733 583.918 212.656 583.581C212.595 583.243 212.48 582.944 212.311 582.684C212.142 582.423 211.905 582.216 211.598 582.063C211.307 581.894 210.931 581.81 210.471 581.81C209.827 581.81 209.221 581.932 208.654 582.178C208.087 582.423 207.581 582.699 207.136 583.006L206.4 581.695C206.921 581.357 207.558 581.035 208.309 580.729C209.06 580.407 209.888 580.246 210.793 580.246C212.158 580.246 213.147 580.667 213.76 581.511C214.373 582.339 214.68 583.45 214.68 584.846V591.7H213.116L212.955 590.366H212.886C212.349 590.81 211.774 591.194 211.161 591.516C210.548 591.822 209.888 591.976 209.183 591.976ZM209.735 590.458C210.272 590.458 210.778 590.335 211.253 590.09C211.728 589.829 212.234 589.453 212.771 588.963V585.858C211.836 585.98 211.046 586.126 210.402 586.295C209.773 586.463 209.26 586.663 208.861 586.893C208.478 587.123 208.194 587.391 208.01 587.698C207.841 587.989 207.757 588.311 207.757 588.664C207.757 589.308 207.949 589.768 208.332 590.044C208.715 590.32 209.183 590.458 209.735 590.458ZM222.015 591.976C220.604 591.976 219.477 591.47 218.634 590.458C217.806 589.446 217.392 588.004 217.392 586.134C217.392 585.229 217.522 584.416 217.783 583.696C218.059 582.96 218.419 582.339 218.864 581.833C219.308 581.327 219.822 580.936 220.405 580.66C220.987 580.384 221.601 580.246 222.245 580.246C222.889 580.246 223.448 580.361 223.924 580.591C224.399 580.821 224.882 581.135 225.373 581.534L225.281 579.625V575.324H227.19V591.7H225.626L225.465 590.389H225.396C224.951 590.818 224.437 591.194 223.855 591.516C223.287 591.822 222.674 591.976 222.015 591.976ZM222.429 590.389C222.95 590.389 223.441 590.266 223.901 590.021C224.361 589.76 224.821 589.369 225.281 588.848V583.006C224.805 582.576 224.345 582.277 223.901 582.109C223.471 581.925 223.027 581.833 222.567 581.833C222.122 581.833 221.7 581.94 221.302 582.155C220.918 582.354 220.581 582.645 220.29 583.029C219.998 583.397 219.768 583.841 219.6 584.363C219.431 584.884 219.347 585.467 219.347 586.111C219.347 587.46 219.615 588.51 220.152 589.262C220.688 590.013 221.447 590.389 222.429 590.389ZM235.302 591.976C234.612 591.976 233.952 591.845 233.324 591.585C232.71 591.324 232.166 590.948 231.691 590.458C231.215 589.952 230.832 589.338 230.541 588.618C230.265 587.882 230.127 587.054 230.127 586.134C230.127 585.198 230.265 584.37 230.541 583.65C230.832 582.914 231.215 582.293 231.691 581.787C232.166 581.281 232.71 580.897 233.324 580.637C233.952 580.376 234.612 580.246 235.302 580.246C235.992 580.246 236.643 580.376 237.257 580.637C237.885 580.897 238.437 581.281 238.913 581.787C239.388 582.293 239.764 582.914 240.04 583.65C240.331 584.37 240.477 585.198 240.477 586.134C240.477 587.054 240.331 587.882 240.04 588.618C239.764 589.338 239.388 589.952 238.913 590.458C238.437 590.948 237.885 591.324 237.257 591.585C236.643 591.845 235.992 591.976 235.302 591.976ZM235.302 590.412C235.777 590.412 236.214 590.312 236.613 590.113C237.011 589.898 237.349 589.607 237.625 589.239C237.916 588.855 238.138 588.403 238.292 587.882C238.445 587.36 238.522 586.778 238.522 586.134C238.522 585.49 238.445 584.907 238.292 584.386C238.138 583.849 237.916 583.389 237.625 583.006C237.349 582.622 237.011 582.331 236.613 582.132C236.214 581.917 235.777 581.81 235.302 581.81C234.826 581.81 234.389 581.917 233.991 582.132C233.592 582.331 233.247 582.622 232.956 583.006C232.68 583.389 232.465 583.849 232.312 584.386C232.158 584.907 232.082 585.49 232.082 586.134C232.082 586.778 232.158 587.36 232.312 587.882C232.465 588.403 232.68 588.855 232.956 589.239C233.247 589.607 233.592 589.898 233.991 590.113C234.389 590.312 234.826 590.412 235.302 590.412ZM245.102 591.7L241.997 580.522H243.929L245.585 586.985C245.707 587.521 245.822 588.043 245.93 588.549C246.037 589.055 246.144 589.568 246.252 590.09H246.344C246.466 589.568 246.589 589.055 246.712 588.549C246.834 588.027 246.965 587.506 247.103 586.985L248.828 580.522H250.668L252.416 586.985C252.554 587.521 252.684 588.043 252.807 588.549C252.945 589.055 253.075 589.568 253.198 590.09H253.29C253.412 589.568 253.527 589.055 253.635 588.549C253.742 588.043 253.857 587.521 253.98 586.985L255.613 580.522H257.407L254.417 591.7H252.117L250.507 585.697C250.369 585.16 250.238 584.631 250.116 584.11C250.008 583.588 249.886 583.044 249.748 582.477H249.656C249.533 583.044 249.41 583.596 249.288 584.133C249.165 584.654 249.027 585.183 248.874 585.72L247.31 591.7H245.102ZM262.76 591.976C261.963 591.976 261.204 591.83 260.483 591.539C259.763 591.247 259.134 590.879 258.597 590.435L259.54 589.17C260.031 589.568 260.529 589.89 261.035 590.136C261.557 590.381 262.155 590.504 262.829 590.504C263.565 590.504 264.117 590.335 264.485 589.998C264.853 589.66 265.037 589.246 265.037 588.756C265.037 588.464 264.961 588.211 264.807 587.997C264.654 587.782 264.455 587.598 264.209 587.445C263.979 587.276 263.711 587.13 263.404 587.008C263.098 586.885 262.791 586.762 262.484 586.64C262.086 586.502 261.687 586.348 261.288 586.18C260.89 585.996 260.529 585.781 260.207 585.536C259.901 585.275 259.648 584.976 259.448 584.639C259.249 584.301 259.149 583.895 259.149 583.42C259.149 582.975 259.234 582.561 259.402 582.178C259.586 581.779 259.839 581.442 260.161 581.166C260.499 580.874 260.905 580.652 261.38 580.499C261.856 580.33 262.392 580.246 262.99 580.246C263.696 580.246 264.34 580.368 264.922 580.614C265.52 580.859 266.034 581.158 266.463 581.511L265.566 582.707C265.183 582.415 264.784 582.178 264.37 581.994C263.956 581.81 263.504 581.718 263.013 581.718C262.308 581.718 261.787 581.879 261.449 582.201C261.127 582.523 260.966 582.898 260.966 583.328C260.966 583.588 261.035 583.818 261.173 584.018C261.311 584.202 261.495 584.37 261.725 584.524C261.955 584.662 262.216 584.792 262.507 584.915C262.814 585.022 263.128 585.137 263.45 585.26C263.849 585.413 264.248 585.574 264.646 585.743C265.06 585.911 265.428 586.126 265.75 586.387C266.072 586.632 266.333 586.939 266.532 587.307C266.747 587.675 266.854 588.119 266.854 588.641C266.854 589.101 266.762 589.53 266.578 589.929C266.41 590.327 266.149 590.68 265.796 590.987C265.459 591.293 265.03 591.531 264.508 591.7C264.002 591.884 263.42 591.976 262.76 591.976Z" fill="#253858"/>
</g>
<defs>
<linearGradient id="paint0_linear" x1="-571218" y1="51628.5" x2="-617258" y2="51628.5" gradientUnits="userSpaceOnUse">
<stop stop-color="#808080" stop-opacity="0.25"/>
<stop offset="0.54" stop-color="#808080" stop-opacity="0.12"/>
<stop offset="1" stop-color="#808080" stop-opacity="0.1"/>
</linearGradient>
</defs>
</svg>
