<svg width="368" height="607" viewBox="0 0 368 607" fill="none" xmlns="http://www.w3.org/2000/svg">
<path d="M59.4858 143.567C60.67 129.17 76.26 120.738 88.9573 127.628L247.467 213.641C252.569 216.409 256.216 221.257 257.462 226.926L335.073 580.035C337.995 593.328 327.073 605.594 313.531 604.227L43.5333 576.972C32.6873 575.877 24.7158 566.298 25.6094 555.433L59.4858 143.567Z" fill="#E6FCFB"/>
<path opacity="0.1" d="M135.468 550.792C210.286 550.792 270.937 541.388 270.937 529.788C270.937 518.187 210.286 508.783 135.468 508.783C60.6513 508.783 0 518.187 0 529.788C0 541.388 60.6513 550.792 135.468 550.792Z" fill="#03DFD8"/>
<path d="M37.0412 464.56C33.0267 472.372 31.1518 481.109 31.6069 489.881C32.062 498.653 34.8311 507.148 39.6325 514.503C41.2077 516.867 42.6569 518.568 43.8146 519.017C49.3673 521.2 60.4883 526.565 60.4883 526.565L87.267 516.039C87.267 516.039 91.6146 493.034 95.7259 473.282C98.5297 459.809 101.239 447.857 102.35 445.762C105.122 440.601 102.35 384.419 102.35 384.419C102.35 384.419 75.571 382.622 68.2069 403.272L64.9855 409.575L37.0412 464.56Z" fill="#A8A8A8"/>
<path opacity="0.1" d="M72.5938 470.769C88.8737 489.433 95.7416 473.29 95.7416 473.29C98.5455 459.817 101.255 447.866 102.365 445.77C105.138 440.609 102.365 384.427 102.365 384.427C102.365 384.427 75.5867 382.63 68.2226 403.28L65.0013 409.583C62.9377 426.105 60.8978 457.336 72.5938 470.769Z" fill="white"/>
<path d="M76.1694 522.791L170.682 511.871L187.545 400.877L174.794 372.049C169.406 359.772 161.947 348.515 152.741 338.77C146.322 332.002 138.564 325.494 130.404 322.225C129.289 321.775 128.151 321.386 126.994 321.059C125.664 320.654 124.257 320.57 122.889 320.812C121.52 321.055 120.228 321.617 119.118 322.453C107.461 330.718 103.295 365.856 101.948 382.772C101.394 389.723 100.455 396.638 99.1361 403.485L76.1694 522.791Z" fill="#A8A8A8"/>
<path opacity="0.1" d="M139.092 399.68L119.401 448.133C129.719 440.586 145.006 399.483 145.006 399.483L158.703 446.345L147.787 396.954C149.385 386.228 149.849 375.364 149.173 364.541C148.307 352.14 136.674 332.238 130.357 322.217C129.242 321.767 128.103 321.378 126.947 321.051C125.617 320.647 124.21 320.562 122.842 320.805C121.473 321.047 120.181 321.609 119.071 322.445C124.032 332.412 136.437 357.332 140.218 364.738C145.014 374.066 139.092 399.68 139.092 399.68Z" fill="white"/>
<path d="M155.167 526.565H206.448C208.557 526.566 210.645 526.137 212.583 525.306C214.522 524.474 216.271 523.256 217.725 521.727C219.178 520.198 220.306 518.389 221.038 516.41C221.771 514.432 222.094 512.325 221.987 510.217C220.853 488.22 217.978 449 211.142 424.104C207.448 410.67 203.155 403.619 199.217 400.145C197.371 398.362 194.987 397.24 192.436 396.954C190.501 396.787 188.565 397.257 186.923 398.293C177.401 407.424 166.28 455.476 166.28 455.476L155.167 526.565Z" fill="#A8A8A8"/>
<path opacity="0.1" d="M202.51 483.95C204.621 489.803 205.455 496.555 202.51 503.134L191.082 508.783C191.082 508.783 160.365 495.76 164.098 469.067C164.098 469.067 165.106 463.552 175.684 463.977C181.633 464.265 187.361 466.318 192.139 469.875C196.916 473.432 200.527 478.332 202.51 483.95V483.95Z" fill="white"/>
<path opacity="0.1" d="M190.302 413.782C189.947 404.423 195.027 401.177 199.225 400.144C197.379 398.362 194.994 397.24 192.444 396.954C189.522 399.4 187.451 402.71 186.529 406.408L175.818 458.636C175.818 458.636 190.9 429.469 190.302 413.782Z" fill="white"/>
<path d="M141.675 455.082L167.067 489.827L171.47 518.505L155.151 526.565L131.625 531.765C129.359 532.269 127.03 532.42 124.718 532.214L60.5198 526.565L69.2543 506.309L99.4197 463.946L141.675 455.082Z" fill="#A8A8A8"/>
<path opacity="0.1" d="M131.846 443.154C131.846 443.154 149.173 444.344 142.667 474.125C136.162 503.906 69.2229 506.294 69.2229 506.294C69.2229 506.294 83.4471 481.082 105.327 463.016C107.784 460.991 110.155 458.88 112.415 456.627C117.448 451.592 127.073 442.744 131.846 443.154Z" fill="white"/>
<path opacity="0.1" d="M147.432 465.608C147.432 465.608 170.911 486.983 168.698 519.876Z" fill="black"/>
<path opacity="0.1" d="M186.931 398.293C186.931 398.293 162.294 431.068 159.53 481.499Z" fill="black"/>
<path opacity="0.1" d="M102.373 384.403C102.373 384.403 114.298 438.569 84.5261 479.396Z" fill="black"/>
<path d="M68.338 212.079H127.979C128.555 212.076 129.121 211.923 129.621 211.637C130.122 211.35 130.539 210.939 130.834 210.443C131.128 209.947 131.289 209.384 131.301 208.807C131.313 208.231 131.176 207.661 130.903 207.153L101.098 151.757C100.812 151.226 100.388 150.782 99.8703 150.473C99.3528 150.163 98.7612 150 98.1583 150C97.5554 150 96.9638 150.163 96.4463 150.473C95.9288 150.782 95.5047 151.226 95.2191 151.757L65.3988 207.153C65.1251 207.662 64.988 208.233 65.0008 208.811C65.0137 209.389 65.1761 209.953 65.4722 210.449C65.7683 210.946 66.188 211.357 66.6903 211.642C67.1926 211.928 67.7603 212.078 68.338 212.079V212.079ZM101.953 201.956H94.3636V194.368H101.953V201.956ZM101.953 189.307H94.3636V174.127H101.953V189.307Z" fill="#464353"/>
<path opacity="0.1" d="M68.338 212.079H127.979C128.555 212.076 129.121 211.923 129.621 211.637C130.122 211.35 130.539 210.939 130.834 210.443C131.128 209.947 131.289 209.384 131.301 208.807C131.313 208.231 131.176 207.661 130.903 207.153L101.098 151.757C100.812 151.226 100.388 150.782 99.8703 150.473C99.3528 150.163 98.7612 150 98.1583 150C97.5554 150 96.9638 150.163 96.4463 150.473C95.9288 150.782 95.5047 151.226 95.2191 151.757L65.3988 207.153C65.1251 207.662 64.988 208.233 65.0008 208.811C65.0137 209.389 65.1761 209.953 65.4722 210.449C65.7683 210.946 66.188 211.357 66.6903 211.642C67.1926 211.928 67.7603 212.078 68.338 212.079V212.079ZM101.953 201.956H94.3636V194.368H101.953V201.956ZM101.953 189.307H94.3636V174.127H101.953V189.307Z" fill="black"/>
<path d="M68.338 213.907H127.979C128.555 213.904 129.121 213.752 129.621 213.465C130.122 213.179 130.539 212.767 130.834 212.272C131.128 211.776 131.289 211.212 131.301 210.636C131.313 210.059 131.176 209.489 130.903 208.981L101.098 153.585C100.812 153.054 100.388 152.61 99.8703 152.301C99.3528 151.992 98.7612 151.828 98.1583 151.828C97.5554 151.828 96.9638 151.992 96.4463 152.301C95.9288 152.61 95.5047 153.054 95.2191 153.585L65.3988 208.981C65.1251 209.49 64.988 210.061 65.0008 210.639C65.0137 211.217 65.1761 211.782 65.4722 212.278C65.7683 212.774 66.188 213.185 66.6903 213.471C67.1926 213.756 67.7603 213.907 68.338 213.907V213.907ZM101.953 203.785H94.3636V196.196H101.953V203.785ZM101.953 191.135H94.3636V175.955H101.953V191.135Z" fill="#464353"/>
<path d="M184.15 220.503C184.064 222.15 184.883 223.655 185.363 225.231C186.158 228.274 186.079 231.48 185.135 234.48C184.253 237.632 182.772 240.964 183.898 244.045C184.158 244.77 184.552 245.431 184.788 246.156C185.765 249.15 183.954 252.302 181.969 254.752L189.758 260.212C190.896 261.155 192.248 261.802 193.696 262.095C195.153 262.268 196.847 261.488 197.146 260.054C197.248 259.566 197.146 259.054 197.24 258.557C197.336 257.915 197.584 257.306 197.964 256.78C198.343 256.253 198.843 255.825 199.422 255.532C200.592 254.958 201.897 254.715 203.195 254.831C207.976 255.091 212.04 258.234 216.387 260.251C219.254 261.493 222.224 262.479 225.264 263.198C226.988 263.647 228.902 264.057 230.462 263.198C232.021 262.339 232.738 260.346 232.62 258.542C232.378 256.747 231.818 255.01 230.966 253.413C230.106 251.817 229.589 250.059 229.446 248.252C229.446 245.605 230.895 243.194 231.383 240.594C232.068 236.899 230.674 233.141 228.973 229.784C227.272 226.428 225.208 223.198 224.381 219.542C224.217 218.434 223.929 217.348 223.523 216.304C223.129 215.511 222.595 214.796 221.948 214.193C219.026 211.301 214.859 209.93 210.779 209.631C206.7 209.332 202.58 210.001 198.532 210.702C196.988 210.923 195.466 211.284 193.988 211.782C191.874 212.622 189.868 213.709 188.01 215.02C186.167 216.296 184.269 218.163 184.15 220.503Z" fill="#464353"/>
<g opacity="0.1">
<path opacity="0.1" d="M229.422 246.637C229.422 246.873 229.422 247.11 229.47 247.338C229.714 245.03 230.927 242.863 231.36 240.555C231.527 239.63 231.577 238.687 231.51 237.75C231.51 238.159 231.431 238.538 231.36 238.979C230.864 241.579 229.391 243.99 229.422 246.637Z" fill="black"/>
<path opacity="0.1" d="M185.891 228.382C185.984 226.788 185.806 225.189 185.364 223.655C184.897 222.459 184.516 221.232 184.222 219.983C184.222 220.149 184.159 220.306 184.151 220.472C184.064 222.119 184.883 223.623 185.364 225.199C185.668 226.235 185.845 227.304 185.891 228.382V228.382Z" fill="black"/>
<path opacity="0.1" d="M232.549 258.108C232.494 258.812 232.274 259.493 231.908 260.097C231.541 260.7 231.038 261.209 230.438 261.583C228.863 262.441 226.965 262.032 225.24 261.583C222.199 260.864 219.229 259.876 216.364 258.628C212.016 256.619 207.952 253.475 203.171 253.215C201.873 253.1 200.569 253.343 199.399 253.917C198.82 254.21 198.32 254.638 197.94 255.164C197.561 255.691 197.313 256.3 197.217 256.942C197.162 257.438 197.217 257.95 197.123 258.439C196.815 259.873 195.13 260.653 193.673 260.48C192.225 260.186 190.872 259.54 189.735 258.597L182.733 253.68C182.473 254.035 182.213 254.381 181.945 254.704L189.735 260.172C190.872 261.115 192.225 261.762 193.673 262.055C195.13 262.229 196.823 261.449 197.123 260.015C197.225 259.526 197.123 259.014 197.217 258.518C197.313 257.876 197.561 257.266 197.94 256.74C198.32 256.214 198.82 255.786 199.399 255.492C200.569 254.918 201.873 254.676 203.171 254.791C207.952 255.051 212.016 258.195 216.364 260.204C219.229 261.451 222.199 262.44 225.24 263.158C226.965 263.607 228.879 264.017 230.438 263.158C231.998 262.3 232.715 260.306 232.596 258.502C232.588 258.368 232.565 258.242 232.549 258.108Z" fill="black"/>
<path opacity="0.1" d="M184.789 246.117C184.886 246.434 184.957 246.758 185.001 247.086C185.123 246.233 185.051 245.363 184.789 244.541C184.552 243.816 184.159 243.155 183.899 242.43C183.709 241.904 183.587 241.356 183.536 240.799C183.42 241.881 183.544 242.976 183.899 244.005C184.159 244.73 184.552 245.4 184.789 246.117Z" fill="black"/>
</g>
<path d="M194.035 545.072C193.981 545.296 193.853 545.496 193.673 545.639C193.481 545.739 193.266 545.785 193.05 545.773C190.247 545.836 187.443 545.773 184.647 545.97C182 546.199 179.346 546.758 176.708 546.459C175.864 546.489 175.031 546.255 174.325 545.791C173.62 545.326 173.076 544.654 172.77 543.867C172.603 543.523 172.456 543.171 172.328 542.811C171.602 540.954 171.235 538.975 171.249 536.981C171.249 536.453 171.249 535.941 171.249 535.405C171.215 534.828 171.139 534.254 171.021 533.687C170.782 533.039 170.811 532.322 171.1 531.694C172.218 529.654 174.92 529.244 176.999 529.086C181.816 528.723 186.66 529.079 191.373 530.142C191.743 531.954 192.16 533.751 192.602 535.547C192.927 536.865 193.274 538.178 193.641 539.486C193.888 540.296 194.088 541.119 194.24 541.952C194.435 542.993 194.364 544.066 194.035 545.072Z" fill="#464353"/>
<path opacity="0.06" d="M194.035 545.072C193.981 545.296 193.854 545.496 193.673 545.639C193.481 545.739 193.266 545.785 193.051 545.773C190.247 545.836 187.443 545.773 184.647 545.97C182 546.199 179.346 546.758 176.708 546.459C175.864 546.489 175.031 546.255 174.326 545.791C173.62 545.326 173.076 544.654 172.77 543.867C172.603 543.523 172.456 543.171 172.329 542.811H173.337C176.653 542.811 179.976 542.693 183.292 542.693C184.292 542.693 185.301 542.646 186.293 542.527C187.285 542.409 188.097 542.244 189.002 542.133C190.358 542.004 191.72 541.948 193.082 541.968H194.2C194.405 543 194.348 544.068 194.035 545.072Z" fill="black"/>
<path d="M252.042 530.442C251.164 531.467 250.043 532.255 248.782 532.734C243.174 535.098 236.692 534.034 230.903 532.112C229.608 531.631 228.278 531.249 226.925 530.97C225.691 530.796 224.446 530.709 223.2 530.71C222.31 530.71 221.42 530.639 220.53 530.584C218.278 530.442 216.033 530.221 213.796 530C212.237 529.886 210.688 529.652 209.165 529.299C208.732 529.188 208.316 529.019 207.928 528.795V528.795C207.598 528.65 207.316 528.413 207.115 528.113C206.914 527.813 206.803 527.462 206.794 527.101C206.857 526.101 207.897 525.525 208.81 525.092C216.915 521.586 225.72 520.066 234.463 518.844C235.352 518.696 236.218 518.431 237.038 518.057C238.023 517.663 238.125 518.309 238.614 519.033C238.844 519.369 239.108 519.68 239.401 519.963C240.351 520.821 241.466 521.475 242.678 521.886C244.804 522.673 247.08 522.886 249.207 523.635C249.85 523.858 250.466 524.154 251.042 524.517C251.551 524.794 251.989 525.184 252.324 525.656C252.659 526.129 252.881 526.672 252.974 527.244C253.066 527.816 253.027 528.401 252.859 528.955C252.691 529.51 252.398 530.018 252.003 530.442H252.042Z" fill="#464353"/>
<path opacity="0.06" d="M252.042 530.442C251.164 531.467 250.043 532.255 248.782 532.734C243.174 535.098 236.692 534.034 230.903 532.112C229.608 531.631 228.278 531.249 226.925 530.969C225.691 530.796 224.446 530.709 223.2 530.709C222.31 530.709 221.42 530.639 220.53 530.583C221.255 529.898 221.995 529.228 222.751 528.582C223.299 528.07 223.93 527.654 224.618 527.353C225.474 527.072 226.386 527.01 227.272 527.172C231.777 527.794 235.825 530.954 240.37 530.678C242.487 530.434 244.535 529.773 246.395 528.732C247.908 528.116 249.256 527.155 250.333 525.927C250.658 525.504 250.906 525.026 251.066 524.517C251.574 524.794 252.013 525.184 252.347 525.656C252.682 526.129 252.904 526.672 252.997 527.244C253.09 527.815 253.051 528.401 252.882 528.955C252.714 529.51 252.421 530.018 252.026 530.442H252.042Z" fill="black"/>
<path d="M250.459 393.519C249.672 395.094 248.663 396.804 246.962 397.293C244.489 398.002 242.111 395.78 241.031 393.448C239.561 390.025 239.283 386.206 240.244 382.607C240.693 380.787 241.378 379.038 241.764 377.21C242.042 375.672 242.211 374.116 242.268 372.554C242.501 370.224 242.445 367.874 242.103 365.557C240.835 358.79 235.014 353.739 233.077 347.09C232.1 343.773 232.147 340.243 232.202 336.785C232.184 335.91 232.274 335.037 232.47 334.185C232.529 333.952 232.608 333.725 232.706 333.507C234.006 330.623 237.857 330.229 240.535 328.551C242.016 327.63 245.379 324.659 246.623 327.37C246.892 327.973 247.093 328.605 247.222 329.253C247.734 331.663 247.529 334.492 247.655 336.769C248.136 345.372 250.278 353.96 249.286 362.516C249.049 363.975 248.933 365.451 248.939 366.928C249.152 370.631 251.467 373.838 252.531 377.383C254.169 382.717 252.853 388.524 250.459 393.519Z" fill="#FBBEBE"/>
<path opacity="0.1" d="M247.261 329.268C246.676 329.056 246.035 329.056 245.45 329.268L240.118 330.844C238.249 331.342 236.428 332.004 234.675 332.821C233.91 333.197 233.185 333.648 232.51 334.169C232.568 333.936 232.647 333.71 232.746 333.491C234.045 330.608 237.897 330.214 240.575 328.535C242.055 327.614 245.418 324.643 246.663 327.354C246.934 327.967 247.135 328.61 247.261 329.268V329.268Z" fill="black"/>
<path d="M247.608 328.669C247.287 328.474 246.924 328.357 246.549 328.327C246.175 328.297 245.798 328.355 245.45 328.496L240.118 330.072C238.249 330.57 236.428 331.232 234.675 332.049C233.745 332.502 232.875 333.068 232.084 333.735C229.595 329.41 228.934 324.281 228.477 319.317C228.225 316.426 228.036 313.527 227.926 310.651C227.802 308.581 227.844 306.505 228.052 304.443C228.351 302.079 229.036 299.771 229.461 297.423C229.715 296.048 229.878 294.659 229.95 293.263C230.154 290.213 230.014 287.15 229.532 284.131C229.074 280.923 228.342 277.76 227.343 274.677C226.839 273.267 226.232 271.904 225.681 270.517L225.492 270.029C224.496 267.487 223.683 264.878 223.058 262.221C222.806 261.134 222.79 259.991 221.956 259.251C222.739 259.156 223.53 259.125 224.318 259.156C224.476 259.156 224.633 259.156 224.791 259.156C228.027 259.36 231.144 260.45 233.801 262.308C237.224 264.778 239.825 268.22 241.268 272.187C242.93 276.623 243.205 281.445 243.418 286.18C243.843 295.487 244.106 304.8 244.205 314.118C244.205 315.906 244.284 317.813 245.308 319.286C245.595 319.649 245.859 320.031 246.096 320.428C246.466 321.216 246.411 322.091 246.71 322.886C246.93 323.364 247.18 323.827 247.458 324.273C247.811 324.948 248.007 325.693 248.033 326.454C248.059 327.215 247.914 327.972 247.608 328.669Z" fill="#464353"/>
<path d="M195.185 236.19C194.397 235.93 193.61 235.654 192.822 235.402L194.46 235.528C194.733 235.711 194.978 235.934 195.185 236.19Z" fill="#FBBEBE"/>
<path d="M227.437 264.624C227.28 265.16 227.122 265.695 226.949 266.2C226.549 267.494 226.062 268.76 225.492 269.989C224.599 272.008 223.336 273.842 221.767 275.394C221.249 275.94 220.613 276.36 219.908 276.623C219.312 276.776 218.695 276.834 218.081 276.796C215.98 276.796 213.88 276.765 211.78 276.702C210.145 276.72 208.512 276.559 206.912 276.221C205.151 275.741 203.477 274.986 201.95 273.984C196.067 270.344 191.231 264.797 189.16 258.226C188.9 257.391 188.719 256.391 189.294 255.737C189.859 255.275 190.572 255.032 191.302 255.051H191.397C193.09 254.831 194.721 254.271 196.193 253.405C197.146 252.917 197.915 252.131 198.383 251.167C198.702 250.025 198.677 248.813 198.312 247.685L196.563 239.743C196.381 238.471 195.904 237.26 195.169 236.206C195.681 236.387 196.193 236.552 196.744 236.694C201.612 238.01 206.936 237.214 211.709 238.939C213.536 239.609 215.363 240.815 215.915 242.69C216.836 245.841 213.757 249.111 214.639 252.262C215.23 254.405 217.411 255.642 219.364 256.643L220.68 257.312L224.326 259.164L224.83 259.416L224.909 259.455C226.059 260.038 227.272 260.763 227.674 262C227.845 262.88 227.763 263.789 227.437 264.624V264.624Z" fill="#FBBEBE"/>
<path opacity="0.1" d="M237.046 283.123C236.913 285.137 236.422 287.111 235.597 288.953C234.016 292.139 233.168 295.639 233.116 299.195C232.51 309.832 228.469 322.493 234.258 331.427C234.4 331.648 234.542 331.868 234.676 332.097C233.745 332.549 232.875 333.116 232.084 333.783C229.595 329.457 228.934 324.328 228.477 319.365C228.225 316.473 228.036 313.574 227.926 310.698C227.802 308.629 227.844 306.553 228.052 304.49C228.351 302.126 229.036 299.818 229.462 297.47C229.715 296.095 229.878 294.706 229.95 293.31C230.154 290.26 230.014 287.197 229.532 284.179C229.075 280.97 228.342 277.807 227.343 274.724C226.839 273.314 226.232 271.951 225.681 270.564L225.492 270.076C224.599 272.095 223.336 273.928 221.767 275.481C221.249 276.026 220.613 276.447 219.908 276.71C219.312 276.862 218.695 276.921 218.081 276.883C215.98 276.883 213.88 276.851 211.78 276.788C210.145 276.807 208.512 276.645 206.912 276.308C205.151 275.827 203.477 275.072 201.95 274.07C196.067 270.43 191.231 264.884 189.16 258.313C188.9 257.478 188.719 256.477 189.294 255.823C189.859 255.362 190.572 255.118 191.302 255.138H191.397L198.485 263.907C199.298 264.835 199.986 265.865 200.533 266.972C200.639 267.343 200.859 267.671 201.163 267.909C201.409 268.022 201.68 268.071 201.95 268.051C208.606 268.051 217.474 268.051 224.129 268.051C224.151 266.871 223.81 265.714 223.153 264.734C222.948 264.781 222.672 264.797 223.098 264.671C222.713 262.114 221.887 259.642 220.656 257.368C220.583 257.211 220.501 257.059 220.412 256.911C219.883 256.131 219.489 255.268 219.246 254.358C220.087 254.09 220.989 254.09 221.83 254.358C222.798 254.776 223.302 255.823 223.728 256.792C224.09 257.58 224.452 258.423 224.775 259.251C224.775 259.337 224.854 259.432 224.886 259.518C225.572 261.149 226.013 262.872 226.193 264.632C226.24 265.278 226.398 266.097 226.933 266.31C227.018 266.348 227.109 266.37 227.201 266.373C227.756 266.17 228.358 266.136 228.932 266.277C229.505 266.417 230.024 266.725 230.422 267.161C231.197 268.048 231.739 269.115 231.998 270.265C232.254 271.414 232.629 272.534 233.116 273.605C234.132 275.544 232.581 276.41 234.416 277.6C235.274 278.072 236.012 278.735 236.574 279.538C237.093 280.657 237.258 281.908 237.046 283.123V283.123Z" fill="black"/>
<path opacity="0.1" d="M191.302 530.174C191.672 531.986 192.09 533.782 192.531 535.578L192.483 535.689C188.884 534.113 185.198 532.466 181.268 532.12C177.621 531.804 173.66 532.789 171.179 535.437C171.144 534.859 171.068 534.285 170.95 533.719C170.711 533.07 170.74 532.353 171.029 531.726C172.147 529.685 174.849 529.275 176.928 529.118C181.745 528.755 186.59 529.111 191.302 530.174Z" fill="black"/>
<path opacity="0.1" d="M222.326 266.176C222.696 266.176 222.562 266.176 222.381 266.239C222.2 266.302 221.901 266.302 222.326 266.176Z" fill="black"/>
<path opacity="0.1" d="M239.441 519.963C235.928 522.202 232.627 524.758 229.58 527.598C228.695 528.545 227.639 529.318 226.469 529.874C225.26 530.264 223.983 530.395 222.72 530.26C217.765 530.06 212.826 529.571 207.928 528.795V528.795C207.598 528.65 207.316 528.413 207.115 528.113C206.914 527.813 206.803 527.462 206.794 527.101C206.857 526.101 207.897 525.525 208.81 525.092C216.915 521.586 225.72 520.066 234.463 518.844C235.352 518.696 236.218 518.431 237.038 518.057C238.023 517.663 238.125 518.309 238.614 519.033C238.857 519.371 239.134 519.682 239.441 519.963V519.963Z" fill="black"/>
<path d="M181.654 257.037C182.812 258.069 184.135 258.904 185.308 259.905C188.459 262.575 190.443 266.31 192.397 269.95C191.238 270.369 189.986 270.453 188.782 270.194C188.162 273.689 188.267 277.275 189.089 280.728C187.513 281.809 186.289 283.33 185.568 285.101C185.008 286.898 184.623 288.744 184.418 290.616C183.284 298.815 182.145 307.014 181 315.213C180.977 316.015 180.701 316.79 180.212 317.427C179.994 317.603 179.793 317.801 179.614 318.018C179.373 318.548 179.278 319.132 179.338 319.711C179.291 320.287 178.913 320.972 178.338 320.893C178.059 320.826 177.811 320.665 177.637 320.436C177.062 319.827 176.535 319.174 176.062 318.482C171.415 327.401 169.178 337.013 166.721 346.767C164.964 353.716 163.208 360.743 163.121 367.913C163.145 371.305 163.358 374.693 163.759 378.061L164.452 384.978C165.012 390.54 165.571 396.111 166.177 401.673C166.571 405.203 166.965 408.764 168.233 412.089C170.123 417.139 168.028 422.835 168.831 428.177C169.462 432.36 170.714 436.686 169.454 440.72C168.95 442.335 168.068 443.808 167.406 445.368C165.783 449.244 165.618 453.554 165.476 457.753C165.221 461.434 165.359 465.132 165.886 468.783C166.563 472.557 168.083 476.252 167.784 480.066C167.367 485.494 163.366 490.134 162.877 495.555C162.491 499.88 164.389 504.056 166.429 507.893C167.934 510.721 165.839 514.377 165.043 517.489C163.468 523.587 166.091 529.969 169.304 535.382C169.386 535.567 169.531 535.718 169.714 535.807C170.084 535.941 170.415 535.579 170.659 535.271C173.077 532.167 177.361 530.993 181.291 531.332C185.222 531.671 188.9 533.294 192.507 534.901L197.619 523.516C198.485 521.586 199.367 519.498 198.934 517.426C198.627 515.945 197.674 514.692 196.996 513.337C195.421 510.138 195.342 506.412 195.327 502.827L195.232 482.579C199.217 477.568 201.651 471.612 203.187 465.388C205.543 474.142 205.705 483.343 203.66 492.175C203.281 493.51 203.017 494.876 202.872 496.256C202.565 501.874 206.967 506.624 208.141 512.124C208.255 512.544 208.287 512.983 208.236 513.416C208.103 513.948 207.882 514.454 207.582 514.913C205.471 518.742 205.699 523.382 206.007 527.747C211.53 528.709 217.11 529.306 222.712 529.536C223.975 529.662 225.25 529.53 226.461 529.15C227.632 528.59 228.687 527.815 229.572 526.865C233.148 523.5 237.074 520.529 241.284 518.001C238.933 514.1 235.643 510.85 231.714 508.547C232.982 506.68 235.873 506.829 237.558 505.332C238.404 504.495 238.957 503.406 239.133 502.228C239.763 499.14 238.984 495.925 238.204 492.892C236.692 486.92 235.172 480.924 232.691 475.283C231.569 472.965 230.58 470.584 229.729 468.153C227.666 461.362 229.107 453.971 227.548 447.03C227.044 444.809 226.232 442.516 226.799 440.302C227.666 436.891 231.525 434.866 232.376 431.446C235.424 419.274 235.967 406.66 237.7 394.236C238.087 391.862 238.295 389.463 238.322 387.058C238.322 384.545 237.873 382.055 237.692 379.55C236.983 369.52 240.189 359.514 239.37 349.493C238.845 343.317 236.811 337.365 233.447 332.16C227.658 323.217 231.698 310.564 232.305 299.928C232.35 296.372 233.196 292.871 234.778 289.686C235.61 287.846 236.103 285.871 236.235 283.856C236.478 282.613 236.324 281.326 235.794 280.176C235.24 279.37 234.503 278.706 233.644 278.238C231.809 277.041 233.36 276.174 232.344 274.236C231.855 273.165 231.481 272.045 231.226 270.895C230.968 269.748 230.426 268.683 229.651 267.799C229.252 267.363 228.733 267.055 228.16 266.915C227.586 266.775 226.984 266.808 226.429 267.011C225.681 267.011 225.476 266.018 225.413 265.27C225.201 262.528 224.066 259.952 222.956 257.431C222.531 256.462 222.027 255.414 221.058 254.996C220.214 254.732 219.31 254.732 218.467 254.996C218.71 255.91 219.107 256.776 219.64 257.557C221.005 259.953 221.913 262.581 222.318 265.309C223.106 265.309 221.53 265.546 222.318 265.309C223.023 266.292 223.386 267.48 223.35 268.689C216.702 268.689 207.834 268.689 201.179 268.689C200.908 268.711 200.637 268.662 200.391 268.547C200.087 268.308 199.865 267.98 199.753 267.61C199.211 266.503 198.523 265.475 197.705 264.553L189.908 254.933C189.735 254.682 189.506 254.474 189.238 254.326C188.917 254.236 188.576 254.236 188.254 254.326C185.726 254.697 183.859 255.753 181.654 257.037Z" fill="#03DFD8"/>
<path opacity="0.1" d="M209.638 387.381C210.982 387.363 212.306 387.706 213.473 388.374C214.052 388.715 214.533 389.2 214.867 389.783C215.201 390.366 215.378 391.027 215.379 391.699C215.293 393.188 214.151 394.369 213.324 395.638C212.812 396.411 212.404 397.248 212.111 398.128C212.02 398.328 211.998 398.552 212.048 398.766C212.142 399.065 212.465 399.215 212.741 399.349C213.743 399.802 214.599 400.526 215.212 401.439C215.826 402.352 216.173 403.418 216.214 404.517C216.143 407.59 213.142 410.079 213.308 413.184C213.383 413.83 213.493 414.472 213.639 415.106C213.999 417.752 213.631 420.446 212.575 422.898C211.622 425.372 210.323 427.696 209.299 430.146C206.534 436.804 205.936 444.178 206.148 451.419C206.314 456.335 204.573 461.015 202.998 465.695C203.888 456.268 204.125 446.791 203.707 437.332C203.597 434.763 203.274 432.337 203.392 429.76C203.581 425.671 205.865 421.953 206.448 417.942C206.779 415.65 206.558 413.318 206.613 411.001C206.723 406.274 208.007 401.61 208.094 396.867C208.204 393.519 207.897 390.068 209.638 387.381Z" fill="black"/>
<path d="M176.771 258.723C175.205 259.504 173.74 260.472 172.407 261.606C171.015 262.99 169.851 264.585 168.958 266.334C167.87 268.315 166.894 270.356 166.036 272.447C164.925 275.158 164.004 278.159 164.768 280.988C165.461 283.548 167.422 285.542 168.776 287.819C170.131 290.095 170.927 292.766 171.966 295.264C173.352 298.597 175.251 301.701 176.621 305.041C177.991 308.382 178.818 312.132 177.952 315.607C177.7 316.631 176.038 317.427 176.038 318.474C176.038 320.208 178.543 322.091 180.205 322.595C182.119 323.186 184.206 322.303 185.773 321.019C188.648 318.742 190.396 315.331 191.688 311.896C193.767 306.381 194.878 300.527 195.878 294.712C196.603 290.442 197.28 286.164 197.666 281.862C198.02 277.986 198.131 273.984 197.107 270.265C196.151 266.852 194.293 263.76 191.727 261.315C189.68 259.345 186.324 256.698 183.347 256.627C180.992 256.619 178.787 257.612 176.771 258.723Z" fill="#464353"/>
<path d="M199.162 353.7C199.077 354.238 198.876 354.752 198.572 355.205C198.269 355.658 197.871 356.039 197.406 356.323C196.477 356.888 195.464 357.303 194.405 357.552C192.294 358.167 190.058 358.734 187.923 358.191C186.246 357.644 184.697 356.762 183.371 355.599L159.522 337.336C157.606 335.977 155.845 334.413 154.269 332.672C153.364 331.547 152.533 330.366 151.78 329.134C150.783 327.724 150.003 326.174 149.464 324.533C149.272 323.811 149.177 323.066 149.181 322.319C149.175 321.612 149.348 320.916 149.685 320.294C150.26 319.333 151.489 319.136 152.497 318.868C155.88 317.993 159.393 317.726 162.869 318.08C163.175 318.066 163.477 318.151 163.73 318.323C163.983 318.495 164.173 318.744 164.271 319.034C164.799 320.003 165.256 321.011 165.728 322.02C166.454 323.739 167.399 325.357 168.54 326.834C169.64 328.029 170.81 329.158 172.045 330.214C174.565 332.577 176.629 335.413 179.315 337.588C182.426 340.101 186.206 341.606 189.75 343.458C193.295 345.309 196.792 347.712 198.572 351.297C198.985 352.029 199.189 352.86 199.162 353.7Z" fill="#FBBEBE"/>
<path opacity="0.1" d="M226.768 226.286C226.769 231.26 224.87 236.047 221.46 239.667C218.05 243.288 213.386 245.468 208.423 245.763C203.459 246.058 198.57 244.445 194.755 241.253C190.941 238.062 188.49 233.534 187.902 228.594C187.315 223.655 188.636 218.678 191.595 214.68C194.555 210.683 198.929 207.967 203.823 207.089C208.718 206.21 213.763 207.236 217.927 209.955C222.09 212.674 225.059 216.881 226.225 221.717C226.586 223.213 226.768 224.747 226.768 226.286V226.286Z" fill="black"/>
<path d="M226.768 225.498C226.769 230.473 224.87 235.259 221.46 238.88C218.05 242.5 213.386 244.68 208.423 244.975C203.459 245.27 198.57 243.657 194.755 240.466C190.941 237.274 188.49 232.746 187.902 227.806C187.315 222.867 188.636 217.89 191.595 213.892C194.555 209.895 198.929 207.179 203.823 206.301C208.718 205.423 213.763 206.448 217.927 209.167C222.09 211.886 225.059 216.093 226.225 220.929C226.586 222.425 226.768 223.959 226.768 225.498V225.498Z" fill="#FBBEBE"/>
<path opacity="0.1" d="M165.728 321.988C164.831 322.563 163.5 322.374 162.389 322.122C158.01 321.145 153.174 320.444 149.181 322.319C149.175 321.612 149.348 320.916 149.685 320.294C150.26 319.333 151.489 319.136 152.497 318.868C155.88 317.993 159.393 317.726 162.869 318.08C163.175 318.066 163.477 318.151 163.73 318.323C163.983 318.495 164.173 318.744 164.271 319.034C164.799 319.971 165.256 320.98 165.728 321.988Z" fill="black"/>
<path d="M157.498 295.461C156.529 298.612 155.734 301.85 153.835 304.521C153.208 305.224 152.736 306.05 152.449 306.948C152.428 307.61 152.319 308.267 152.126 308.902C151.859 309.437 151.291 309.792 151.063 310.343C150.724 311.131 151.165 312.148 150.716 312.888C150.506 313.186 150.254 313.451 149.968 313.676C148.897 314.669 148.629 316.252 148.606 317.718C148.582 319.183 148.724 320.68 148.243 322.059C152.402 319.577 157.695 320.318 162.42 321.374C163.736 321.665 165.366 321.886 166.217 320.83C167.067 319.774 166.579 318.388 166.697 317.119C166.855 315.465 167.989 314.094 168.69 312.589C169.477 310.895 169.745 309.004 170.352 307.239C171.604 303.528 174.29 300.503 176.014 296.997C176.653 295.791 177.034 294.466 177.133 293.105C177.073 291.341 176.613 289.614 175.786 288.055C174.147 284.424 172.197 280.942 169.958 277.647C168.957 276.174 167.233 273.448 165.681 275.804C164.421 277.702 163.633 280.121 162.704 282.201C160.701 286.511 158.963 290.939 157.498 295.461Z" fill="#464353"/>
<path d="M228.564 264.876C226.199 265.039 223.828 264.672 221.623 263.801C219.418 262.93 217.436 261.577 215.82 259.842C215.548 259.594 215.352 259.274 215.253 258.92C215.208 258.459 215.337 257.998 215.615 257.628C216.561 256.17 218.191 255.209 218.947 253.641C219.703 252.073 219.443 250.269 219.514 248.552C219.64 245.471 220.853 242.422 220.955 239.389C220.992 238.612 220.934 237.835 220.782 237.072C220.42 235.94 220.197 234.768 220.121 233.582C220.223 231.274 222.302 229.477 222.649 227.2C223.098 224.301 220.696 221.78 218.278 220.11C216.434 218.83 214.432 217.795 212.323 217.029C211.028 216.565 209.687 216.24 208.322 216.06C205.779 215.716 203.19 216.006 200.785 216.903C199.789 217.279 198.847 217.782 197.981 218.4C197.465 218.726 197.036 219.172 196.729 219.7C196.476 220.294 196.363 220.938 196.398 221.583C196.351 224.805 196.713 228.232 195.177 231.037C194.389 232.542 193.051 233.763 192.397 235.355C192.129 236.017 191.962 236.715 191.901 237.427C191.822 238.165 191.782 238.906 191.782 239.649C191.735 243.801 191.782 248.181 193.893 251.782C194.638 252.87 195.314 254.004 195.917 255.177C196.21 255.771 196.345 256.429 196.311 257.09C196.276 257.751 196.073 258.392 195.72 258.951C195.294 259.462 194.755 259.867 194.145 260.133C192.582 260.884 190.88 261.303 189.146 261.366C187.413 261.428 185.685 261.132 184.072 260.496C185.959 258.707 187.255 256.384 187.787 253.839C188.319 251.293 188.062 248.646 187.049 246.251C186.48 245.284 186.11 244.212 185.962 243.099C186.041 242.097 186.308 241.119 186.75 240.216C187.829 237.255 187.997 234.039 187.23 230.982C186.75 229.107 185.915 227.295 185.765 225.365C185.64 223.908 185.704 222.441 185.954 221C186.386 218.422 187.521 216.014 189.235 214.041C190.949 212.068 193.174 210.607 195.665 209.82C196.067 209.686 196.453 209.56 196.894 209.45C198.805 209.025 200.757 208.817 202.714 208.827C207.086 208.686 211.52 208.559 215.734 209.702C218.207 210.35 220.509 211.533 222.476 213.168C223.872 214.342 224.986 215.815 225.736 217.478C226.146 218.436 226.455 219.434 226.658 220.456C226.839 221.299 226.973 222.15 227.107 223.001C228.06 229.06 229.013 235.237 227.997 241.287C227.595 243.651 226.894 246.015 226.579 248.425C225.815 253.98 227.193 259.503 228.564 264.876Z" fill="#464353"/>
<path d="M200.58 272.66C201.389 272.66 202.045 272.004 202.045 271.195C202.045 270.385 201.389 269.729 200.58 269.729C199.771 269.729 199.115 270.385 199.115 271.195C199.115 272.004 199.771 272.66 200.58 272.66Z" fill="white"/>
<path d="M225.303 271.967C226.112 271.967 226.768 271.311 226.768 270.501C226.768 269.692 226.112 269.036 225.303 269.036C224.494 269.036 223.838 269.692 223.838 270.501C223.838 271.311 224.494 271.967 225.303 271.967Z" fill="white"/>
<path opacity="0.1" d="M200.58 197.135L197.43 191.187C197.629 190.949 197.848 190.728 198.083 190.525C198.538 190.245 199.071 190.118 199.603 190.163L200.58 197.135Z" fill="black"/>
<path opacity="0.1" d="M209.267 189.887L205.7 195.166L203.667 189.375C204.535 189.002 205.473 188.825 206.416 188.855C207.417 189.038 208.381 189.386 209.267 189.887V189.887Z" fill="black"/>
<g opacity="0.1">
<path opacity="0.1" d="M195.72 257.391C195.294 257.902 194.755 258.307 194.145 258.573C191.352 259.91 188.166 260.176 185.19 259.322C184.844 259.743 184.471 260.14 184.072 260.511C185.685 261.148 187.413 261.444 189.146 261.381C190.88 261.319 192.582 260.899 194.145 260.149C194.755 259.882 195.294 259.478 195.72 258.967C195.991 258.574 196.176 258.128 196.263 257.658C196.35 257.188 196.337 256.705 196.225 256.241C196.146 256.658 195.974 257.051 195.72 257.391Z" fill="black"/>
<path opacity="0.1" d="M187.175 231.006C187.432 232.038 187.583 233.094 187.624 234.157C187.715 232.568 187.563 230.974 187.175 229.43C186.695 227.555 185.86 225.743 185.71 223.812C185.71 223.568 185.71 223.324 185.671 223.072C185.633 223.844 185.646 224.618 185.71 225.388C185.86 227.318 186.695 229.13 187.175 231.006Z" fill="black"/>
<path opacity="0.1" d="M227.942 241.311C228.276 239.227 228.418 237.117 228.367 235.008C228.339 236.592 228.197 238.172 227.942 239.735C227.54 242.099 226.839 244.462 226.524 246.873C226.361 248.166 226.301 249.47 226.343 250.773C226.364 249.996 226.425 249.22 226.524 248.449C226.839 246.038 227.54 243.698 227.942 241.311Z" fill="black"/>
<path opacity="0.1" d="M187.017 244.691C186.605 243.915 186.272 243.099 186.025 242.256C185.958 242.54 185.926 242.831 185.931 243.123C186.079 244.236 186.448 245.307 187.017 246.274C187.596 247.595 187.929 249.01 188.002 250.45C188.144 248.479 187.807 246.503 187.017 244.691V244.691Z" fill="black"/>
<path opacity="0.1" d="M220.782 237.041C220.851 237.4 220.901 237.763 220.932 238.128C220.932 238.01 220.932 237.899 220.932 237.781C220.968 237.005 220.91 236.227 220.759 235.465C220.585 234.638 220.302 233.818 220.168 232.983C220.129 233.17 220.105 233.36 220.097 233.55C220.181 234.738 220.412 235.91 220.782 237.041V237.041Z" fill="black"/>
<path opacity="0.1" d="M215.82 258.234C215.699 258.107 215.586 257.973 215.481 257.832C215.288 258.148 215.207 258.52 215.253 258.888C215.352 259.243 215.548 259.562 215.82 259.81C217.436 261.545 219.418 262.898 221.623 263.769C223.827 264.64 226.199 265.007 228.564 264.844C228.43 264.324 228.296 263.812 228.17 263.269C225.87 263.374 223.574 262.979 221.442 262.11C219.309 261.24 217.391 259.918 215.82 258.234V258.234Z" fill="black"/>
<path opacity="0.1" d="M222.633 225.703C222.629 225.674 222.629 225.645 222.633 225.617C223.082 222.717 220.68 220.196 218.262 218.526C216.418 217.247 214.417 216.211 212.308 215.445C211.012 214.981 209.671 214.656 208.307 214.476C205.763 214.132 203.174 214.422 200.769 215.319C199.774 215.695 198.831 216.198 197.965 216.816C197.449 217.142 197.02 217.588 196.713 218.116C196.46 218.71 196.347 219.354 196.382 219.999C196.382 220.543 196.382 221.086 196.382 221.638V221.575C196.347 220.93 196.46 220.286 196.713 219.692C197.02 219.164 197.449 218.718 197.965 218.392C198.831 217.774 199.774 217.271 200.769 216.895C203.174 215.998 205.763 215.708 208.307 216.052C209.671 216.232 211.012 216.557 212.308 217.021C214.417 217.787 216.418 218.822 218.262 220.102C220.27 221.457 222.247 223.411 222.633 225.703Z" fill="black"/>
<path opacity="0.1" d="M195.177 229.477C194.389 230.982 193.051 232.203 192.397 233.795C192.129 234.457 191.962 235.155 191.901 235.867C191.822 236.605 191.782 237.346 191.782 238.089C191.782 238.758 191.782 239.436 191.782 240.113C191.782 239.964 191.782 239.814 191.782 239.664C191.782 238.922 191.822 238.18 191.901 237.442C191.962 236.731 192.129 236.033 192.397 235.37C193.051 233.795 194.358 232.558 195.177 231.053C196.445 228.689 196.421 225.971 196.398 223.269C196.502 225.407 196.083 227.538 195.177 229.477V229.477Z" fill="black"/>
</g>
<path opacity="0.1" d="M226.602 220.511C226.494 220.665 226.367 220.806 226.224 220.929C225.946 221.158 225.636 221.343 225.303 221.48C223.011 222.473 223.105 219.235 221.908 218.124C221.141 217.557 220.198 217.279 219.246 217.336C216.941 217.221 214.633 217.118 212.323 217.029C208.472 216.887 204.628 216.816 200.785 216.903C198.942 216.934 197.104 217.01 195.271 217.131C193.145 217.273 190.861 217.549 189.049 218.557C188.429 218.899 187.868 219.337 187.387 219.857C186.954 220.33 186.498 220.929 185.899 221.039C186.331 218.461 187.466 216.053 189.18 214.08C190.893 212.107 193.119 210.647 195.61 209.859C199.643 206.854 204.682 205.524 209.672 206.148C214.663 206.772 219.219 209.302 222.389 213.208C223.785 214.382 224.899 215.854 225.649 217.517C226.071 218.479 226.391 219.483 226.602 220.511V220.511Z" fill="black"/>
<path d="M225.303 219.905C223.011 220.897 223.106 217.659 221.908 216.548C221.141 215.982 220.199 215.703 219.246 215.761C211.265 215.235 203.261 215.167 195.272 215.556C192.428 215.745 189.309 216.17 187.395 218.282C186.907 218.817 186.395 219.511 185.663 219.487C185.419 217.911 185.245 216.273 185.127 214.658C185.056 214.053 185.088 213.44 185.222 212.845C185.419 212.168 185.868 211.593 186.096 210.931C186.321 210.089 186.401 209.215 186.332 208.347C186.367 205.132 187.23 201.981 188.839 199.199C190.448 196.416 192.748 194.096 195.516 192.463C196.21 192.124 196.855 191.689 197.43 191.171C197.629 190.933 197.848 190.712 198.083 190.509C198.538 190.229 199.071 190.102 199.603 190.147C199.981 190.147 200.391 190.147 200.722 190.147C201.74 190.035 202.736 189.769 203.675 189.359C204.542 188.987 205.481 188.809 206.424 188.839C207.425 189.022 208.389 189.371 209.275 189.871C209.701 190.077 210.147 190.238 210.606 190.352C211.323 190.517 212.063 190.509 212.78 190.651C213.941 190.947 215.043 191.437 216.041 192.101C217.231 192.743 218.332 193.538 219.317 194.465C220.388 195.689 221.245 197.084 221.853 198.593C222.896 200.677 223.69 202.877 224.216 205.148C224.854 208.41 224.539 211.939 226.051 214.902C226.973 216.761 227.816 218.825 225.303 219.905Z" fill="#FED253"/>
<path opacity="0.1" d="M185.379 217.431C185.379 217.431 201.706 202.572 226.02 214.894C226.02 214.894 198.572 208.646 185.379 217.431Z" fill="black"/>
<path d="M7.47447 293.357C5.25342 289.717 1.91396 286.385 2.43378 282.256C8.54562 282.957 14.3424 281.468 19.9423 278.876C25.5422 276.284 30.7404 272.92 35.9859 269.619C38.0494 268.319 40.105 267.043 42.1528 265.861C45.3978 264.001 48.6191 261.921 51.9192 260.102C56.6448 257.502 61.465 255.374 66.7734 254.965C67.735 254.89 68.6999 254.866 69.664 254.894C76.2011 255.02 82.9745 256.777 88.7241 253.846L89.0785 253.657C92.3392 251.868 94.7099 248.827 97.5059 246.361C99.516 244.622 101.705 243.101 104.035 241.823C108.28 239.459 112.88 237.569 117.22 235.339C118.331 234.767 119.385 234.091 120.37 233.322L121.11 232.731L121.276 232.589C121.457 232.44 121.638 232.29 121.811 232.132L122.15 231.833L122.497 231.518L122.764 231.266L123.198 230.856L123.245 230.801L123.93 230.123L124.206 229.847L124.686 229.351L124.97 229.067C125.45 228.571 125.931 228.067 126.419 227.578C126.907 227.09 127.569 226.428 128.16 225.885L128.727 225.38L128.892 225.238L129.349 224.86L129.562 224.679L130.01 224.332L130.231 224.159C130.452 223.994 130.68 223.836 130.908 223.679C131.119 223.533 131.34 223.404 131.57 223.292L130.097 219.723L134.334 217.974L192.775 359.829L188.53 361.579L155.104 280.428L154.867 280.665C147.124 288.308 137.639 293.954 127.23 297.115H127.167C121.347 298.872 114.833 300.117 109.934 303.379C108.197 304.508 106.688 305.954 105.484 307.641C104.334 309.28 103.531 311.147 102.334 312.723C102.106 313.015 101.853 313.298 101.601 313.566C100.169 314.986 98.5843 316.244 96.8758 317.316L96.1276 317.828C91.0531 321.4 85.7664 324.66 80.2967 327.59C77.1402 329.233 73.8492 330.604 70.4594 331.687C67.9942 332.475 65.4503 333.05 62.9851 333.83C61.3268 334.332 59.7164 334.981 58.1728 335.768C53.9984 337.95 50.7929 341.37 47.7606 345.018C45.1064 348.216 42.586 351.604 39.6719 354.519C37.8446 356.331 35.0644 358.049 32.8591 356.985L32.4101 356.725C32.481 356.607 32.5361 356.489 32.5991 356.363C34.3398 352.715 32.1975 348.208 29.3148 345.285C29.0155 344.978 28.7084 344.679 28.3933 344.395C28.0783 344.112 27.5112 343.607 27.0623 343.213C24.5971 341.094 21.9743 339.124 20.2652 336.39C18.9607 334.094 18.0753 331.584 17.6504 328.977C16.8628 325.266 16.3351 321.445 14.3188 318.285C12.9956 316.197 11.0266 314.417 9.59313 312.416C8.68702 311.232 8.09137 309.839 7.8604 308.366C7.53748 305.806 8.72676 303.3 9.1757 300.747C9.30926 300.052 9.36473 299.344 9.3411 298.636C9.17657 296.747 8.53422 294.93 7.47447 293.357V293.357Z" fill="url(#paint0_linear)"/>
<path d="M187.044 360.361L191.217 358.641L133.75 219.171L129.578 220.891L187.044 360.361Z" fill="#D6D8E1"/>
<path d="M15.7285 317.789C17.7054 320.901 18.2331 324.651 18.997 328.299C19.4208 330.863 20.2926 333.333 21.5725 335.595C23.258 338.281 25.8335 340.219 28.2514 342.299C28.6925 342.685 29.1335 343.087 29.5589 343.465C29.866 343.741 30.1732 344.041 30.4646 344.332C33.3 347.208 35.4029 351.643 33.6938 355.228C33.6413 355.35 33.5808 355.469 33.5126 355.583C33.651 355.677 33.7958 355.761 33.9458 355.835C36.1196 356.891 38.8526 355.205 40.6484 353.416C43.5153 350.548 45.9962 347.224 48.6032 344.08C51.5804 340.487 54.7387 337.123 58.8421 334.98C60.3569 334.204 61.9385 333.566 63.5677 333.074C65.9857 332.286 68.4903 331.726 70.9161 330.97C74.2481 329.904 77.4836 328.557 80.5879 326.944C85.9748 324.06 91.1825 320.853 96.1826 317.34L96.9229 316.836C98.6019 315.783 100.16 314.549 101.57 313.156C101.822 312.888 102.066 312.613 102.294 312.321C103.507 310.745 104.303 308.941 105.445 307.326C106.629 305.667 108.115 304.245 109.824 303.135C114.644 299.928 121.039 298.699 126.765 296.974H126.828C137.06 293.86 146.385 288.31 154.001 280.799C154.632 280.271 155.104 279.578 155.363 278.798C155.608 277.687 155.009 276.584 154.434 275.607C153.765 274.456 153.111 273.306 152.465 272.14C149.56 266.852 146.967 261.398 144.699 255.808C144.203 254.579 143.723 253.357 143.258 252.12C142.066 248.969 140.979 245.773 139.997 242.532C139.674 241.461 139.359 240.381 139.06 239.302C139.005 239.097 138.942 238.876 138.887 238.64C137.579 233.385 135.831 221.086 130.443 224.766C128.841 225.912 127.351 227.207 125.994 228.634C124.946 229.698 123.922 230.793 122.843 231.849C121.964 232.713 121.036 233.526 120.063 234.283C119.075 235.04 118.021 235.704 116.912 236.269C112.636 238.459 108.115 240.295 103.948 242.642C101.654 243.897 99.4996 245.391 97.5215 247.102C94.7727 249.528 92.4414 252.522 89.2359 254.279L88.8893 254.468C83.2343 257.344 76.579 255.618 70.1443 255.492C69.1985 255.469 68.2522 255.492 67.3089 255.563C62.087 255.957 57.3141 258.053 52.6988 260.614C49.4538 262.41 46.2876 264.443 43.0978 266.278C41.0816 267.436 39.0653 268.689 37.0332 269.973C31.8823 273.219 26.6605 276.623 21.2811 279.081C15.7678 281.587 10.0734 283.083 4.064 282.398C3.55205 286.456 6.8285 289.733 9.01805 293.31C10.0697 294.847 10.7072 296.63 10.8689 298.486C10.8979 299.18 10.8477 299.876 10.7193 300.558C10.2782 303.072 9.14406 305.53 9.4276 308.059C9.6511 309.501 10.2334 310.864 11.121 312.022C12.4914 313.984 14.421 315.74 15.7285 317.789Z" fill="#F86D70"/>
<path d="M175.857 334.2C175.857 334.2 182.757 340.22 189.75 343.426C196.744 346.633 192.113 358.136 192.113 358.136C192.113 358.136 184.702 359.837 179.512 352.62C174.321 345.404 175.857 334.2 175.857 334.2Z" fill="#FBBEBE"/>
<g opacity="0.59">
<path fill-rule="evenodd" clip-rule="evenodd" d="M160.46 563.528L193.285 558.297L173.156 577.116L141.792 581.724L160.46 563.528Z" fill="#03DFD8" fill-opacity="0.15"/>
<path opacity="0.5" fill-rule="evenodd" clip-rule="evenodd" d="M152.316 561.334L185.14 556.103L165.012 574.921L133.647 579.529L152.316 561.334Z" fill="#03DFD8"/>
<path fill-rule="evenodd" clip-rule="evenodd" d="M142.535 559.244L175.359 554.013L155.23 572.832L123.866 577.44L142.535 559.244Z" fill="#03DFD8"/>
<path d="M206.588 576.976C206.066 576.976 205.537 576.853 205.001 576.608C204.479 576.347 203.981 575.979 203.506 575.504H203.437L203.207 576.7H201.114V560.462H203.759V564.648L203.69 566.534C204.165 566.12 204.679 565.782 205.231 565.522C205.798 565.261 206.373 565.131 206.956 565.131C207.661 565.131 208.29 565.269 208.842 565.545C209.394 565.805 209.861 566.189 210.245 566.695C210.628 567.185 210.919 567.783 211.119 568.489C211.318 569.194 211.418 569.984 211.418 570.858C211.418 571.824 211.28 572.69 211.004 573.457C210.743 574.208 210.39 574.844 209.946 575.366C209.501 575.887 208.987 576.286 208.405 576.562C207.822 576.838 207.216 576.976 206.588 576.976ZM206.036 574.791C206.787 574.791 207.416 574.469 207.922 573.825C208.428 573.165 208.681 572.192 208.681 570.904C208.681 569.769 208.489 568.887 208.106 568.259C207.722 567.63 207.101 567.316 206.243 567.316C205.445 567.316 204.617 567.737 203.759 568.581V573.848C204.157 574.2 204.548 574.446 204.932 574.584C205.33 574.722 205.698 574.791 206.036 574.791ZM218.697 576.976C217.991 576.976 217.317 576.845 216.673 576.585C216.029 576.324 215.454 575.941 214.948 575.435C214.457 574.929 214.066 574.308 213.775 573.572C213.483 572.836 213.338 572 213.338 571.065C213.338 570.129 213.483 569.294 213.775 568.558C214.066 567.822 214.457 567.201 214.948 566.695C215.454 566.189 216.029 565.805 216.673 565.545C217.317 565.269 217.991 565.131 218.697 565.131C219.402 565.131 220.077 565.269 220.721 565.545C221.38 565.805 221.955 566.189 222.446 566.695C222.936 567.201 223.327 567.822 223.619 568.558C223.925 569.294 224.079 570.129 224.079 571.065C224.079 572 223.925 572.836 223.619 573.572C223.327 574.308 222.936 574.929 222.446 575.435C221.955 575.941 221.38 576.324 220.721 576.585C220.077 576.845 219.402 576.976 218.697 576.976ZM218.697 574.814C219.525 574.814 220.176 574.476 220.652 573.802C221.127 573.112 221.365 572.199 221.365 571.065C221.365 569.915 221.127 569.002 220.652 568.328C220.176 567.638 219.525 567.293 218.697 567.293C217.869 567.293 217.217 567.638 216.742 568.328C216.282 569.002 216.052 569.915 216.052 571.065C216.052 572.199 216.282 573.112 216.742 573.802C217.217 574.476 217.869 574.814 218.697 574.814ZM224.823 576.7L228.411 570.812L225.053 565.407H227.905L229.17 567.546C229.339 567.852 229.508 568.174 229.676 568.512C229.86 568.834 230.037 569.148 230.205 569.455H230.297C230.435 569.148 230.581 568.834 230.734 568.512C230.888 568.174 231.033 567.852 231.171 567.546L232.252 565.407H234.989L231.654 571.111L235.242 576.7H232.39L231.01 574.469C230.826 574.131 230.635 573.794 230.435 573.457C230.251 573.119 230.06 572.79 229.86 572.468H229.768C229.6 572.79 229.431 573.119 229.262 573.457C229.109 573.779 228.948 574.116 228.779 574.469L227.583 576.7H224.823ZM240.381 576.976C239.584 576.976 238.825 576.83 238.104 576.539C237.384 576.247 236.755 575.879 236.218 575.435L237.161 574.17C237.652 574.568 238.15 574.89 238.656 575.136C239.178 575.381 239.776 575.504 240.45 575.504C241.186 575.504 241.738 575.335 242.106 574.998C242.474 574.66 242.658 574.246 242.658 573.756C242.658 573.464 242.582 573.211 242.428 572.997C242.275 572.782 242.076 572.598 241.83 572.445C241.6 572.276 241.332 572.13 241.025 572.008C240.719 571.885 240.412 571.762 240.105 571.64C239.707 571.502 239.308 571.348 238.909 571.18C238.511 570.996 238.15 570.781 237.828 570.536C237.522 570.275 237.269 569.976 237.069 569.639C236.87 569.301 236.77 568.895 236.77 568.42C236.77 567.975 236.855 567.561 237.023 567.178C237.207 566.779 237.46 566.442 237.782 566.166C238.12 565.874 238.526 565.652 239.001 565.499C239.477 565.33 240.013 565.246 240.611 565.246C241.317 565.246 241.961 565.368 242.543 565.614C243.141 565.859 243.655 566.158 244.084 566.511L243.187 567.707C242.804 567.415 242.405 567.178 241.991 566.994C241.577 566.81 241.125 566.718 240.634 566.718C239.929 566.718 239.408 566.879 239.07 567.201C238.748 567.523 238.587 567.898 238.587 568.328C238.587 568.588 238.656 568.818 238.794 569.018C238.932 569.202 239.116 569.37 239.346 569.524C239.576 569.662 239.837 569.792 240.128 569.915C240.435 570.022 240.749 570.137 241.071 570.26C241.47 570.413 241.869 570.574 242.267 570.743C242.681 570.911 243.049 571.126 243.371 571.387C243.693 571.632 243.954 571.939 244.153 572.307C244.368 572.675 244.475 573.119 244.475 573.641C244.475 574.101 244.383 574.53 244.199 574.929C244.031 575.327 243.77 575.68 243.417 575.987C243.08 576.293 242.651 576.531 242.129 576.7C241.623 576.884 241.041 576.976 240.381 576.976ZM247.096 576.7V560.324H248.982V564.786L248.913 567.086C249.45 566.58 250.01 566.15 250.592 565.798C251.175 565.43 251.857 565.246 252.639 565.246C253.82 565.246 254.679 565.614 255.215 566.35C255.767 567.086 256.043 568.174 256.043 569.616V576.7H254.157V569.869C254.157 568.811 253.989 568.052 253.651 567.592C253.314 567.116 252.777 566.879 252.041 566.879C251.459 566.879 250.945 567.024 250.5 567.316C250.056 567.607 249.55 568.036 248.982 568.604V576.7H247.096ZM262.183 576.976C261.248 576.976 260.466 576.7 259.837 576.148C259.224 575.596 258.917 574.814 258.917 573.802C258.917 572.575 259.461 571.64 260.55 570.996C261.639 570.336 263.379 569.876 265.771 569.616C265.771 569.263 265.733 568.918 265.656 568.581C265.595 568.243 265.48 567.944 265.311 567.684C265.142 567.423 264.905 567.216 264.598 567.063C264.307 566.894 263.931 566.81 263.471 566.81C262.827 566.81 262.221 566.932 261.654 567.178C261.087 567.423 260.581 567.699 260.136 568.006L259.4 566.695C259.921 566.357 260.558 566.035 261.309 565.729C262.06 565.407 262.888 565.246 263.793 565.246C265.158 565.246 266.147 565.667 266.76 566.511C267.373 567.339 267.68 568.45 267.68 569.846V576.7H266.116L265.955 575.366H265.886C265.349 575.81 264.774 576.194 264.161 576.516C263.548 576.822 262.888 576.976 262.183 576.976ZM262.735 575.458C263.272 575.458 263.778 575.335 264.253 575.09C264.728 574.829 265.234 574.453 265.771 573.963V570.858C264.836 570.98 264.046 571.126 263.402 571.295C262.773 571.463 262.26 571.663 261.861 571.893C261.478 572.123 261.194 572.391 261.01 572.698C260.841 572.989 260.757 573.311 260.757 573.664C260.757 574.308 260.949 574.768 261.332 575.044C261.715 575.32 262.183 575.458 262.735 575.458ZM275.015 576.976C273.604 576.976 272.477 576.47 271.634 575.458C270.806 574.446 270.392 573.004 270.392 571.134C270.392 570.229 270.522 569.416 270.783 568.696C271.059 567.96 271.419 567.339 271.864 566.833C272.308 566.327 272.822 565.936 273.405 565.66C273.987 565.384 274.601 565.246 275.245 565.246C275.889 565.246 276.448 565.361 276.924 565.591C277.399 565.821 277.882 566.135 278.373 566.534L278.281 564.625V560.324H280.19V576.7H278.626L278.465 575.389H278.396C277.951 575.818 277.437 576.194 276.855 576.516C276.287 576.822 275.674 576.976 275.015 576.976ZM275.429 575.389C275.95 575.389 276.441 575.266 276.901 575.021C277.361 574.76 277.821 574.369 278.281 573.848V568.006C277.805 567.576 277.345 567.277 276.901 567.109C276.471 566.925 276.027 566.833 275.567 566.833C275.122 566.833 274.7 566.94 274.302 567.155C273.918 567.354 273.581 567.645 273.29 568.029C272.998 568.397 272.768 568.841 272.6 569.363C272.431 569.884 272.347 570.467 272.347 571.111C272.347 572.46 272.615 573.51 273.152 574.262C273.688 575.013 274.447 575.389 275.429 575.389ZM288.302 576.976C287.612 576.976 286.952 576.845 286.324 576.585C285.71 576.324 285.166 575.948 284.691 575.458C284.215 574.952 283.832 574.338 283.541 573.618C283.265 572.882 283.127 572.054 283.127 571.134C283.127 570.198 283.265 569.37 283.541 568.65C283.832 567.914 284.215 567.293 284.691 566.787C285.166 566.281 285.71 565.897 286.324 565.637C286.952 565.376 287.612 565.246 288.302 565.246C288.992 565.246 289.643 565.376 290.257 565.637C290.885 565.897 291.437 566.281 291.913 566.787C292.388 567.293 292.764 567.914 293.04 568.65C293.331 569.37 293.477 570.198 293.477 571.134C293.477 572.054 293.331 572.882 293.04 573.618C292.764 574.338 292.388 574.952 291.913 575.458C291.437 575.948 290.885 576.324 290.257 576.585C289.643 576.845 288.992 576.976 288.302 576.976ZM288.302 575.412C288.777 575.412 289.214 575.312 289.613 575.113C290.011 574.898 290.349 574.607 290.625 574.239C290.916 573.855 291.138 573.403 291.292 572.882C291.445 572.36 291.522 571.778 291.522 571.134C291.522 570.49 291.445 569.907 291.292 569.386C291.138 568.849 290.916 568.389 290.625 568.006C290.349 567.622 290.011 567.331 289.613 567.132C289.214 566.917 288.777 566.81 288.302 566.81C287.826 566.81 287.389 566.917 286.991 567.132C286.592 567.331 286.247 567.622 285.956 568.006C285.68 568.389 285.465 568.849 285.312 569.386C285.158 569.907 285.082 570.49 285.082 571.134C285.082 571.778 285.158 572.36 285.312 572.882C285.465 573.403 285.68 573.855 285.956 574.239C286.247 574.607 286.592 574.898 286.991 575.113C287.389 575.312 287.826 575.412 288.302 575.412ZM298.102 576.7L294.997 565.522H296.929L298.585 571.985C298.707 572.521 298.822 573.043 298.93 573.549C299.037 574.055 299.144 574.568 299.252 575.09H299.344C299.466 574.568 299.589 574.055 299.712 573.549C299.834 573.027 299.965 572.506 300.103 571.985L301.828 565.522H303.668L305.416 571.985C305.554 572.521 305.684 573.043 305.807 573.549C305.945 574.055 306.075 574.568 306.198 575.09H306.29C306.412 574.568 306.527 574.055 306.635 573.549C306.742 573.043 306.857 572.521 306.98 571.985L308.613 565.522H310.407L307.417 576.7H305.117L303.507 570.697C303.369 570.16 303.238 569.631 303.116 569.11C303.008 568.588 302.886 568.044 302.748 567.477H302.656C302.533 568.044 302.41 568.596 302.288 569.133C302.165 569.654 302.027 570.183 301.874 570.72L300.31 576.7H298.102ZM315.76 576.976C314.963 576.976 314.204 576.83 313.483 576.539C312.763 576.247 312.134 575.879 311.597 575.435L312.54 574.17C313.031 574.568 313.529 574.89 314.035 575.136C314.557 575.381 315.155 575.504 315.829 575.504C316.565 575.504 317.117 575.335 317.485 574.998C317.853 574.66 318.037 574.246 318.037 573.756C318.037 573.464 317.961 573.211 317.807 572.997C317.654 572.782 317.455 572.598 317.209 572.445C316.979 572.276 316.711 572.13 316.404 572.008C316.098 571.885 315.791 571.762 315.484 571.64C315.086 571.502 314.687 571.348 314.288 571.18C313.89 570.996 313.529 570.781 313.207 570.536C312.901 570.275 312.648 569.976 312.448 569.639C312.249 569.301 312.149 568.895 312.149 568.42C312.149 567.975 312.234 567.561 312.402 567.178C312.586 566.779 312.839 566.442 313.161 566.166C313.499 565.874 313.905 565.652 314.38 565.499C314.856 565.33 315.392 565.246 315.99 565.246C316.696 565.246 317.34 565.368 317.922 565.614C318.52 565.859 319.034 566.158 319.463 566.511L318.566 567.707C318.183 567.415 317.784 567.178 317.37 566.994C316.956 566.81 316.504 566.718 316.013 566.718C315.308 566.718 314.787 566.879 314.449 567.201C314.127 567.523 313.966 567.898 313.966 568.328C313.966 568.588 314.035 568.818 314.173 569.018C314.311 569.202 314.495 569.37 314.725 569.524C314.955 569.662 315.216 569.792 315.507 569.915C315.814 570.022 316.128 570.137 316.45 570.26C316.849 570.413 317.248 570.574 317.646 570.743C318.06 570.911 318.428 571.126 318.75 571.387C319.072 571.632 319.333 571.939 319.532 572.307C319.747 572.675 319.854 573.119 319.854 573.641C319.854 574.101 319.762 574.53 319.578 574.929C319.41 575.327 319.149 575.68 318.796 575.987C318.459 576.293 318.03 576.531 317.508 576.7C317.002 576.884 316.42 576.976 315.76 576.976Z" fill="#253858"/>
</g>
<path d="M43.5576 30.4152C40.6278 30.4152 38.3901 29.5502 36.8445 27.82C35.2989 26.0898 34.5261 23.333 34.5261 19.5497V7.43845H39.6474V20.0688C39.6474 22.2834 39.9819 23.829 40.6509 24.7056C41.3199 25.5823 42.2888 26.0206 43.5576 26.0206C44.8264 26.0206 45.8068 25.5823 46.4989 24.7056C47.191 23.829 47.537 22.2834 47.537 20.0688V7.43845H52.4507V19.5497C52.4507 23.333 51.6895 26.0898 50.1669 27.82C48.6674 29.5502 46.4643 30.4152 43.5576 30.4152ZM57.262 30V5.74287H62.3487V11.6947L62.1065 14.7744C62.7524 14.1977 63.5022 13.6671 64.3557 13.1826C65.2093 12.6751 66.2243 12.4214 67.4008 12.4214C69.2694 12.4214 70.619 13.0327 71.4495 14.2554C72.303 15.478 72.7298 17.1736 72.7298 19.3421V30H67.6431V19.9996C67.6431 18.7538 67.47 17.9003 67.124 17.4389C66.801 16.9775 66.2705 16.7468 65.5322 16.7468C64.8863 16.7468 64.3327 16.8968 63.8713 17.1967C63.4099 17.4735 62.9024 17.8772 62.3487 18.4078V30H57.262ZM91.3287 30.4152C90.2444 30.4152 89.1948 30.2192 88.1798 29.827C87.1647 29.4117 86.265 28.8235 85.4807 28.0622C84.7194 27.3009 84.1081 26.3666 83.6467 25.2593C83.1853 24.1289 82.9546 22.8486 82.9546 21.4183C82.9546 19.988 83.1853 18.7192 83.6467 17.6119C84.1081 16.4815 84.7194 15.5357 85.4807 14.7744C86.265 14.0131 87.1647 13.4364 88.1798 13.0442C89.1948 12.629 90.2444 12.4214 91.3287 12.4214C92.4129 12.4214 93.451 12.629 94.443 13.0442C95.4581 13.4364 96.3462 14.0131 97.1075 14.7744C97.8918 15.5357 98.5147 16.4815 98.9761 17.6119C99.4375 18.7192 99.6682 19.988 99.6682 21.4183C99.6682 22.8486 99.4375 24.1289 98.9761 25.2593C98.5147 26.3666 97.8918 27.3009 97.1075 28.0622C96.3462 28.8235 95.4581 29.4117 94.443 29.827C93.451 30.2192 92.4129 30.4152 91.3287 30.4152ZM91.3287 26.2974C92.3668 26.2974 93.1511 25.8591 93.6817 24.9825C94.2123 24.1059 94.4776 22.9178 94.4776 21.4183C94.4776 19.9188 94.2123 18.7308 93.6817 17.8541C93.1511 16.9775 92.3668 16.5392 91.3287 16.5392C90.2675 16.5392 89.4716 16.9775 88.941 17.8541C88.4335 18.7308 88.1798 19.9188 88.1798 21.4183C88.1798 22.9178 88.4335 24.1059 88.941 24.9825C89.4716 25.8591 90.2675 26.2974 91.3287 26.2974ZM103.152 30V5.74287H108.239V11.6947L107.997 14.7744C108.643 14.1977 109.392 13.6671 110.246 13.1826C111.1 12.6751 112.115 12.4214 113.291 12.4214C115.16 12.4214 116.509 13.0327 117.34 14.2554C118.193 15.478 118.62 17.1736 118.62 19.3421V30H113.533V19.9996C113.533 18.7538 113.36 17.9003 113.014 17.4389C112.691 16.9775 112.161 16.7468 111.423 16.7468C110.777 16.7468 110.223 16.8968 109.762 17.1967C109.3 17.4735 108.793 17.8772 108.239 18.4078V30H103.152ZM124.893 22.0066L124.167 11.4179L123.994 6.81559H129.115L128.942 11.4179L128.215 22.0066H124.893ZM126.554 30.4152C125.678 30.4152 124.94 30.1153 124.34 29.5155C123.763 28.8927 123.475 28.1314 123.475 27.2317C123.475 26.3089 123.763 25.5477 124.34 24.9479C124.94 24.325 125.678 24.0136 126.554 24.0136C127.431 24.0136 128.158 24.325 128.734 24.9479C129.334 25.5477 129.634 26.3089 129.634 27.2317C129.634 28.1314 129.334 28.8927 128.734 29.5155C128.158 30.1153 127.431 30.4152 126.554 30.4152Z" fill="#464353"/>
<path d="M37.7292 64.3699C36.7603 64.3699 35.8616 64.1874 35.0331 63.8223C34.2046 63.4572 33.4885 62.9587 32.8846 62.3268L33.9378 61.1052C34.4293 61.6247 35.005 62.046 35.665 62.369C36.339 62.6779 37.0341 62.8323 37.7502 62.8323C38.6629 62.8323 39.3721 62.6287 39.8776 62.2215C40.3831 61.8003 40.6359 61.2526 40.6359 60.5786C40.6359 60.2275 40.5727 59.9327 40.4463 59.6939C40.334 59.4412 40.1725 59.2306 39.9618 59.0621C39.7653 58.8795 39.5265 58.718 39.2457 58.5776C38.9649 58.4372 38.6629 58.2897 38.34 58.1353L36.3601 57.2717C36.0371 57.1313 35.7071 56.9628 35.3701 56.7662C35.0331 56.5696 34.7312 56.3309 34.4644 56.05C34.1976 55.7692 33.9799 55.4392 33.8114 55.0601C33.6429 54.6669 33.5587 54.2175 33.5587 53.712C33.5587 53.1925 33.664 52.708 33.8746 52.2587C34.0993 51.8093 34.4012 51.4232 34.7803 51.1002C35.1735 50.7632 35.6299 50.5034 36.1494 50.3209C36.683 50.1383 37.2658 50.0471 37.8977 50.0471C38.7261 50.0471 39.4914 50.2085 40.1935 50.5315C40.8956 50.8404 41.4924 51.2477 41.9839 51.7532L41.0361 52.8906C40.6148 52.4834 40.1444 52.1674 39.6248 51.9427C39.1193 51.704 38.5436 51.5847 37.8977 51.5847C37.1253 51.5847 36.5005 51.7672 36.023 52.1323C35.5597 52.4834 35.328 52.9748 35.328 53.6067C35.328 53.9437 35.3912 54.2316 35.5175 54.4703C35.658 54.695 35.8405 54.8986 36.0652 55.0811C36.2898 55.2496 36.5356 55.4041 36.8024 55.5445C37.0692 55.6709 37.343 55.7903 37.6238 55.9026L39.5827 56.7451C39.9759 56.9136 40.348 57.1102 40.699 57.3349C41.0501 57.5455 41.352 57.7983 41.6048 58.0932C41.8575 58.374 42.0541 58.711 42.1945 59.1042C42.349 59.4833 42.4262 59.9256 42.4262 60.4312C42.4262 60.9788 42.3139 61.4913 42.0892 61.9688C41.8786 62.4462 41.5697 62.8674 41.1624 63.2325C40.7552 63.5836 40.2637 63.8644 39.688 64.0751C39.1123 64.2716 38.4593 64.3699 37.7292 64.3699ZM48.9596 64.3699C48.3277 64.3699 47.7239 64.2506 47.1481 64.0119C46.5864 63.7732 46.088 63.4291 45.6527 62.9798C45.2173 62.5164 44.8663 61.9547 44.5995 61.2947C44.3467 60.6207 44.2204 59.8624 44.2204 59.0199C44.2204 58.1634 44.3467 57.4051 44.5995 56.7451C44.8663 56.0711 45.2173 55.5024 45.6527 55.039C46.088 54.5756 46.5864 54.2246 47.1481 53.9859C47.7239 53.7471 48.3277 53.6278 48.9596 53.6278C49.5914 53.6278 50.1882 53.7471 50.7499 53.9859C51.3256 54.2246 51.8311 54.5756 52.2665 55.039C52.7018 55.5024 53.0458 56.0711 53.2985 56.7451C53.5653 57.4051 53.6987 58.1634 53.6987 59.0199C53.6987 59.8624 53.5653 60.6207 53.2985 61.2947C53.0458 61.9547 52.7018 62.5164 52.2665 62.9798C51.8311 63.4291 51.3256 63.7732 50.7499 64.0119C50.1882 64.2506 49.5914 64.3699 48.9596 64.3699ZM48.9596 62.9377C49.3949 62.9377 49.7951 62.8464 50.1601 62.6638C50.5252 62.4672 50.8342 62.2004 51.0869 61.8634C51.3537 61.5124 51.5573 61.0981 51.6978 60.6207C51.8382 60.1433 51.9084 59.6097 51.9084 59.0199C51.9084 58.4302 51.8382 57.8966 51.6978 57.4191C51.5573 56.9277 51.3537 56.5064 51.0869 56.1553C50.8342 55.8043 50.5252 55.5375 50.1601 55.355C49.7951 55.1584 49.3949 55.0601 48.9596 55.0601C48.5242 55.0601 48.1241 55.1584 47.759 55.355C47.3939 55.5375 47.0779 55.8043 46.8111 56.1553C46.5584 56.5064 46.3618 56.9277 46.2214 57.4191C46.0809 57.8966 46.0107 58.4302 46.0107 59.0199C46.0107 59.6097 46.0809 60.1433 46.2214 60.6207C46.3618 61.0981 46.5584 61.5124 46.8111 61.8634C47.0779 62.2004 47.3939 62.4672 47.759 62.6638C48.1241 62.8464 48.5242 62.9377 48.9596 62.9377ZM56.3946 64.1172V53.8805H57.8269L57.9744 55.355H58.0376C58.4869 54.8635 58.9714 54.4563 59.4909 54.1333C60.0245 53.7963 60.6002 53.6278 61.2181 53.6278C62.0044 53.6278 62.6153 53.8033 63.0506 54.1544C63.4999 54.4914 63.8299 54.9688 64.0405 55.5866C64.5741 54.9969 65.1077 54.5265 65.6413 54.1754C66.189 53.8103 66.7787 53.6278 67.4106 53.6278C68.4638 53.6278 69.2431 53.9648 69.7486 54.6388C70.2682 55.3128 70.528 56.3098 70.528 57.6298V64.1172H68.8008V57.8615C68.8008 56.8926 68.6463 56.1975 68.3374 55.7762C68.0285 55.3409 67.5511 55.1233 66.9051 55.1233C66.1328 55.1233 65.2762 55.6498 64.3354 56.703V64.1172H62.6083V57.8615C62.6083 56.8926 62.4538 56.1975 62.1449 55.7762C61.8359 55.3409 61.3515 55.1233 60.6915 55.1233C59.9192 55.1233 59.0626 55.6498 58.1218 56.703V64.1172H56.3946ZM78.0075 64.3699C77.3194 64.3699 76.6735 64.2506 76.0697 64.0119C75.4799 63.7591 74.9604 63.4081 74.511 62.9587C74.0757 62.4953 73.7317 61.9336 73.4789 61.2737C73.2262 60.6137 73.0998 59.8624 73.0998 59.0199C73.0998 58.1774 73.2262 57.4262 73.4789 56.7662C73.7457 56.0922 74.0898 55.5235 74.511 55.0601C74.9463 54.5967 75.4378 54.2456 75.9854 54.0069C76.5331 53.7542 77.1018 53.6278 77.6915 53.6278C78.3375 53.6278 78.9132 53.7401 79.4187 53.9648C79.9383 54.1895 80.3666 54.5124 80.7036 54.9337C81.0546 55.355 81.3214 55.8605 81.504 56.4502C81.6865 57.04 81.7778 57.7 81.7778 58.4302C81.7778 58.6127 81.7708 58.7953 81.7567 58.9778C81.7567 59.1463 81.7427 59.2937 81.7146 59.4201H74.8059C74.8761 60.5154 75.2131 61.386 75.8169 62.0319C76.4348 62.6638 77.2352 62.9798 78.2181 62.9798C78.7096 62.9798 79.1589 62.9096 79.5662 62.7692C79.9874 62.6147 80.3876 62.4181 80.7668 62.1794L81.3776 63.3168C80.9282 63.5976 80.4297 63.8434 79.8821 64.054C79.3345 64.2646 78.7096 64.3699 78.0075 64.3699ZM74.7848 58.1774H80.2612C80.2612 57.1383 80.0366 56.3519 79.5872 55.8183C79.1519 55.2707 78.5341 54.9969 77.7337 54.9969C77.3686 54.9969 77.0175 55.0671 76.6805 55.2075C76.3576 55.3479 76.0627 55.5586 75.7959 55.8394C75.5291 56.1062 75.3044 56.4362 75.1219 56.8294C74.9533 57.2225 74.841 57.6719 74.7848 58.1774ZM87.3243 64.3699C86.7766 64.3699 86.3133 64.2857 85.9341 64.1172C85.569 63.9487 85.2671 63.717 85.0284 63.4221C84.8037 63.1272 84.6422 62.7692 84.544 62.3479C84.4457 61.9266 84.3965 61.4632 84.3965 60.9577V55.2918H82.88V53.9859L84.4808 53.8805L84.6914 51.016H86.1447V53.8805H88.904V55.2918H86.1447V60.9788C86.1447 61.6107 86.2571 62.1022 86.4818 62.4532C86.7205 62.7902 87.1347 62.9587 87.7245 62.9587C87.907 62.9587 88.1036 62.9306 88.3142 62.8745C88.5249 62.8183 88.7144 62.7551 88.8829 62.6849L89.22 63.9908C88.9391 64.0891 88.6302 64.1734 88.2932 64.2436C87.9702 64.3278 87.6472 64.3699 87.3243 64.3699ZM91.2186 64.1172V49.1203H92.9458V53.2065L92.8826 55.3128C93.3741 54.8494 93.8866 54.4563 94.4202 54.1333C94.9538 53.7963 95.5787 53.6278 96.2948 53.6278C97.3761 53.6278 98.1624 53.9648 98.6539 54.6388C99.1594 55.3128 99.4122 56.3098 99.4122 57.6298V64.1172H97.685V57.8615C97.685 56.8926 97.5305 56.1975 97.2216 55.7762C96.9127 55.3409 96.4212 55.1233 95.7472 55.1233C95.2136 55.1233 94.7432 55.2567 94.336 55.5235C93.9288 55.7903 93.4654 56.1834 92.9458 56.703V64.1172H91.2186ZM102.676 64.1172V53.8805H104.403V64.1172H102.676ZM103.56 51.7742C103.223 51.7742 102.936 51.6689 102.697 51.4583C102.472 51.2477 102.36 50.9809 102.36 50.6579C102.36 50.3209 102.472 50.0541 102.697 49.8575C102.936 49.6469 103.223 49.5415 103.56 49.5415C103.897 49.5415 104.178 49.6469 104.403 49.8575C104.642 50.0541 104.761 50.3209 104.761 50.6579C104.761 50.9809 104.642 51.2477 104.403 51.4583C104.178 51.6689 103.897 51.7742 103.56 51.7742ZM107.859 64.1172V53.8805H109.292L109.439 55.355H109.502C109.994 54.8635 110.506 54.4563 111.04 54.1333C111.587 53.7963 112.219 53.6278 112.935 53.6278C114.017 53.6278 114.803 53.9648 115.295 54.6388C115.8 55.3128 116.053 56.3098 116.053 57.6298V64.1172H114.326V57.8615C114.326 56.8926 114.171 56.1975 113.862 55.7762C113.553 55.3409 113.062 55.1233 112.388 55.1233C111.854 55.1233 111.384 55.2567 110.977 55.5235C110.569 55.7903 110.106 56.1834 109.586 56.703V64.1172H107.859ZM122.832 68.8353C122.201 68.8353 121.625 68.7721 121.105 68.6457C120.586 68.5334 120.136 68.3579 119.757 68.1192C119.392 67.8805 119.104 67.5926 118.894 67.2556C118.697 66.9186 118.599 66.5254 118.599 66.0761C118.599 65.6407 118.732 65.2265 118.999 64.8333C119.266 64.4402 119.631 64.0821 120.094 63.7591V63.6749C119.842 63.5204 119.624 63.3098 119.441 63.043C119.273 62.7621 119.189 62.4181 119.189 62.0109C119.189 61.5756 119.308 61.1964 119.547 60.8735C119.785 60.5505 120.038 60.2978 120.305 60.1152V60.031C119.968 59.7501 119.659 59.378 119.378 58.9146C119.111 58.4372 118.978 57.8895 118.978 57.2717C118.978 56.71 119.076 56.2045 119.273 55.7552C119.483 55.3058 119.764 54.9267 120.115 54.6177C120.466 54.2948 120.874 54.049 121.337 53.8805C121.814 53.712 122.313 53.6278 122.832 53.6278C123.113 53.6278 123.373 53.6559 123.612 53.712C123.865 53.7542 124.089 53.8103 124.286 53.8805H127.846V55.2075H125.739C125.978 55.4462 126.174 55.7481 126.329 56.1132C126.497 56.4783 126.582 56.8785 126.582 57.3138C126.582 57.8615 126.483 58.3599 126.287 58.8093C126.09 59.2446 125.823 59.6167 125.486 59.9256C125.149 60.2205 124.749 60.4522 124.286 60.6207C123.836 60.7892 123.352 60.8735 122.832 60.8735C122.58 60.8735 122.32 60.8454 122.053 60.7892C121.786 60.719 121.534 60.6277 121.295 60.5154C121.112 60.6699 120.958 60.8454 120.832 61.042C120.705 61.2245 120.642 61.4562 120.642 61.7371C120.642 62.06 120.768 62.3268 121.021 62.5375C121.274 62.7481 121.751 62.8534 122.453 62.8534H124.433C125.627 62.8534 126.519 63.05 127.108 63.4432C127.712 63.8223 128.014 64.4402 128.014 65.2967C128.014 65.7741 127.895 66.2235 127.656 66.6448C127.417 67.0801 127.073 67.4592 126.624 67.7822C126.174 68.1051 125.627 68.3579 124.981 68.5404C124.349 68.737 123.633 68.8353 122.832 68.8353ZM122.832 59.715C123.127 59.715 123.401 59.6588 123.654 59.5465C123.921 59.4342 124.152 59.2727 124.349 59.0621C124.56 58.8514 124.721 58.5987 124.833 58.3038C124.946 57.9949 125.002 57.6508 125.002 57.2717C125.002 56.5134 124.791 55.9307 124.37 55.5235C123.949 55.1022 123.436 54.8916 122.832 54.8916C122.229 54.8916 121.716 55.1022 121.295 55.5235C120.874 55.9307 120.663 56.5134 120.663 57.2717C120.663 57.6508 120.719 57.9949 120.832 58.3038C120.944 58.5987 121.098 58.8514 121.295 59.0621C121.506 59.2727 121.737 59.4342 121.99 59.5465C122.257 59.6588 122.538 59.715 122.832 59.715ZM123.085 67.6347C123.577 67.6347 124.019 67.5715 124.412 67.4452C124.819 67.3328 125.163 67.1784 125.444 66.9818C125.725 66.7992 125.943 66.5816 126.097 66.3288C126.252 66.0761 126.329 65.8163 126.329 65.5495C126.329 65.072 126.153 64.7421 125.802 64.5595C125.451 64.377 124.939 64.2857 124.265 64.2857H122.495C122.299 64.2857 122.081 64.2716 121.843 64.2436C121.618 64.2295 121.393 64.1874 121.169 64.1172C120.803 64.384 120.537 64.6648 120.368 64.9597C120.2 65.2546 120.115 65.5495 120.115 65.8444C120.115 66.392 120.375 66.8273 120.895 67.1503C121.428 67.4732 122.158 67.6347 123.085 67.6347ZM138.737 64.3699C138.26 64.3699 137.761 64.2576 137.242 64.0329C136.736 63.7942 136.259 63.4713 135.809 63.064H135.746L135.599 64.1172H134.209V49.1203H135.936V53.2065L135.894 55.0601C136.357 54.6529 136.863 54.3158 137.41 54.049C137.958 53.7682 138.52 53.6278 139.095 53.6278C139.755 53.6278 140.338 53.7542 140.844 54.0069C141.349 54.2456 141.77 54.5967 142.107 55.0601C142.458 55.5094 142.718 56.0571 142.887 56.703C143.069 57.3349 143.16 58.044 143.16 58.8304C143.16 59.701 143.041 60.4803 142.802 61.1684C142.564 61.8564 142.241 62.4392 141.834 62.9166C141.426 63.394 140.956 63.7591 140.422 64.0119C139.889 64.2506 139.327 64.3699 138.737 64.3699ZM138.442 62.9166C138.864 62.9166 139.25 62.8253 139.601 62.6428C139.966 62.4462 140.275 62.1794 140.528 61.8424C140.794 61.4913 140.998 61.063 141.138 60.5575C141.293 60.052 141.37 59.4833 141.37 58.8514C141.37 58.2897 141.321 57.7772 141.223 57.3138C141.124 56.8504 140.963 56.4573 140.738 56.1343C140.528 55.7973 140.247 55.5375 139.896 55.355C139.559 55.1724 139.151 55.0811 138.674 55.0811C137.846 55.0811 136.933 55.5445 135.936 56.4713V61.8424C136.385 62.2356 136.828 62.5164 137.263 62.6849C137.712 62.8394 138.105 62.9166 138.442 62.9166ZM145.851 64.1172V53.8805H147.283L147.431 55.7341H147.494C147.845 55.0882 148.266 54.5756 148.758 54.1965C149.263 53.8173 149.811 53.6278 150.401 53.6278C150.808 53.6278 151.173 53.698 151.496 53.8384L151.159 55.355C150.99 55.2988 150.836 55.2567 150.695 55.2286C150.555 55.2005 150.38 55.1864 150.169 55.1864C149.734 55.1864 149.277 55.362 148.8 55.713C148.336 56.0641 147.929 56.6749 147.578 57.5455V64.1172H145.851ZM156.928 64.3699C156.296 64.3699 155.693 64.2506 155.117 64.0119C154.555 63.7732 154.057 63.4291 153.621 62.9798C153.186 62.5164 152.835 61.9547 152.568 61.2947C152.316 60.6207 152.189 59.8624 152.189 59.0199C152.189 58.1634 152.316 57.4051 152.568 56.7451C152.835 56.0711 153.186 55.5024 153.621 55.039C154.057 54.5756 154.555 54.2246 155.117 53.9859C155.693 53.7471 156.296 53.6278 156.928 53.6278C157.56 53.6278 158.157 53.7471 158.719 53.9859C159.294 54.2246 159.8 54.5756 160.235 55.039C160.671 55.5024 161.015 56.0711 161.267 56.7451C161.534 57.4051 161.668 58.1634 161.668 59.0199C161.668 59.8624 161.534 60.6207 161.267 61.2947C161.015 61.9547 160.671 62.5164 160.235 62.9798C159.8 63.4291 159.294 63.7732 158.719 64.0119C158.157 64.2506 157.56 64.3699 156.928 64.3699ZM156.928 62.9377C157.364 62.9377 157.764 62.8464 158.129 62.6638C158.494 62.4672 158.803 62.2004 159.056 61.8634C159.322 61.5124 159.526 61.0981 159.667 60.6207C159.807 60.1433 159.877 59.6097 159.877 59.0199C159.877 58.4302 159.807 57.8966 159.667 57.4191C159.526 56.9277 159.322 56.5064 159.056 56.1553C158.803 55.8043 158.494 55.5375 158.129 55.355C157.764 55.1584 157.364 55.0601 156.928 55.0601C156.493 55.0601 156.093 55.1584 155.728 55.355C155.363 55.5375 155.047 55.8043 154.78 56.1553C154.527 56.5064 154.331 56.9277 154.19 57.4191C154.05 57.8966 153.979 58.4302 153.979 59.0199C153.979 59.6097 154.05 60.1433 154.19 60.6207C154.331 61.0981 154.527 61.5124 154.78 61.8634C155.047 62.2004 155.363 62.4672 155.728 62.6638C156.093 62.8464 156.493 62.9377 156.928 62.9377ZM164.363 64.1172V49.1203H166.07V59.2727H166.133L170.493 53.8805H172.41L168.976 57.9878L172.873 64.1172H170.977L167.986 59.1884L166.07 61.4211V64.1172H164.363ZM178.571 64.3699C177.883 64.3699 177.237 64.2506 176.633 64.0119C176.044 63.7591 175.524 63.4081 175.075 62.9587C174.64 62.4953 174.295 61.9336 174.043 61.2737C173.79 60.6137 173.664 59.8624 173.664 59.0199C173.664 58.1774 173.79 57.4262 174.043 56.7662C174.31 56.0922 174.654 55.5235 175.075 55.0601C175.51 54.5967 176.002 54.2456 176.549 54.0069C177.097 53.7542 177.666 53.6278 178.255 53.6278C178.901 53.6278 179.477 53.7401 179.983 53.9648C180.502 54.1895 180.93 54.5124 181.267 54.9337C181.618 55.355 181.885 55.8605 182.068 56.4502C182.25 57.04 182.342 57.7 182.342 58.4302C182.342 58.6127 182.335 58.7953 182.321 58.9778C182.321 59.1463 182.306 59.2937 182.278 59.4201H175.37C175.44 60.5154 175.777 61.386 176.381 62.0319C176.999 62.6638 177.799 62.9798 178.782 62.9798C179.273 62.9798 179.723 62.9096 180.13 62.7692C180.551 62.6147 180.951 62.4181 181.331 62.1794L181.941 63.3168C181.492 63.5976 180.994 63.8434 180.446 64.054C179.898 64.2646 179.273 64.3699 178.571 64.3699ZM175.349 58.1774H180.825C180.825 57.1383 180.6 56.3519 180.151 55.8183C179.716 55.2707 179.098 54.9969 178.297 54.9969C177.932 54.9969 177.581 55.0671 177.244 55.2075C176.921 55.3479 176.626 55.5586 176.36 55.8394C176.093 56.1062 175.868 56.4362 175.686 56.8294C175.517 57.2225 175.405 57.6719 175.349 58.1774ZM189.994 56.7662C189.643 56.7662 189.341 56.6468 189.088 56.4081C188.849 56.1553 188.73 55.8394 188.73 55.4603C188.73 55.053 188.849 54.7301 189.088 54.4914C189.341 54.2386 189.643 54.1122 189.994 54.1122C190.331 54.1122 190.618 54.2386 190.857 54.4914C191.11 54.7301 191.236 55.053 191.236 55.4603C191.236 55.8394 191.11 56.1553 190.857 56.4081C190.618 56.6468 190.331 56.7662 189.994 56.7662ZM189.994 64.3699C189.643 64.3699 189.341 64.2506 189.088 64.0119C188.849 63.7591 188.73 63.4432 188.73 63.064C188.73 62.6568 188.849 62.3338 189.088 62.0951C189.341 61.8424 189.643 61.716 189.994 61.716C190.331 61.716 190.618 61.8424 190.857 62.0951C191.11 62.3338 191.236 62.6568 191.236 63.064C191.236 63.4432 191.11 63.7591 190.857 64.0119C190.618 64.2506 190.331 64.3699 189.994 64.3699ZM197.113 67.8243C196.243 66.4201 195.562 64.9386 195.07 63.38C194.579 61.8213 194.333 60.1152 194.333 58.2617C194.333 56.4081 194.579 54.709 195.07 53.1644C195.562 51.6057 196.243 50.1173 197.113 48.699L198.188 49.2045C197.373 50.5526 196.762 51.9989 196.355 53.5435C195.962 55.0741 195.765 56.6468 195.765 58.2617C195.765 59.8765 195.962 61.4562 196.355 63.0008C196.762 64.5314 197.373 65.9707 198.188 67.3188L197.113 67.8243Z" fill="#464353"/>
<defs>
<linearGradient id="paint0_linear" x1="-571218" y1="51668.5" x2="-617258" y2="51668.5" gradientUnits="userSpaceOnUse">
<stop stop-color="#808080" stop-opacity="0.25"/>
<stop offset="0.54" stop-color="#808080" stop-opacity="0.12"/>
<stop offset="1" stop-color="#808080" stop-opacity="0.1"/>
</linearGradient>
</defs>
</svg>
